<svg xmlns="http://www.w3.org/2000/svg" width="101.797" height="52.704" viewBox="0 0 101.797 52.704">
  <path id="_Path_" data-name="&lt;Path&gt;" d="M12.65,23.936A18.888,18.888,0,0,1,14.434,16.8a27.1,27.1,0,0,1,4.054-6.649A28.035,28.035,0,0,1,24.65,4.394,27.436,27.436,0,0,1,34.219.42c7.136-1.46,13.7,1.054,14.271,4.865a4.539,4.539,0,0,1-.973,3.406c-1.46,2.027-3.811,3.487-6.244,4.946a75.644,75.644,0,0,1-8.109,3.811q-4.257,1.824-9,3.649-2.514.973-5.19,1.946a110.149,110.149,0,0,1,43.868,3.73,28.135,28.135,0,0,1,8.19-1.135,39.818,39.818,0,0,1,9.244.973,37.541,37.541,0,0,1,9.082,3.081,27.543,27.543,0,0,1,8.271,6.082c4.46,4.865,4.216,9.893.324,11.028a7.561,7.561,0,0,1-4.054.081,35.466,35.466,0,0,1-8.028-3c-2.595-1.378-5.109-2.838-7.7-4.541-2.595-1.622-5.19-3.243-7.866-5.108-2.676-1.784-5.433-3.73-8.352-6a.072.072,0,0,0-.081-.081A108.859,108.859,0,0,0,42.9,24.5q1.865.649,3.568,1.378a40.04,40.04,0,0,1,7.217,4.46,27.609,27.609,0,0,1,5.433,5.676,15.364,15.364,0,0,1,2.757,7.055c.405,4.784-2.595,8.109-6.406,7.865A7.717,7.717,0,0,1,52.058,49.8a21.173,21.173,0,0,1-5.19-4.865A46.224,46.224,0,0,1,42.9,38.856c-1.3-2.189-2.514-4.46-3.649-6.892a47.79,47.79,0,0,1-2.919-7.947h0A112.854,112.854,0,0,0,.405,28.4L0,26.855A102.054,102.054,0,0,1,12.65,23.936Z" transform="matrix(-1, 0.017, -0.017, -1, 101.797, 50.943)" fill="#607eaa"/>
</svg>
