<svg xmlns="http://www.w3.org/2000/svg" width="202.031" height="322.823" viewBox="0 0 202.031 322.823">
  <g id="_Group__11_" data-name="_Group_ (11)" transform="matrix(-0.848, -0.53, 0.53, -0.848, 47.662, 351.987)" opacity="0.996">
    <path id="Path_28536" data-name="Path 28536" d="M7.706.467q.7,2.335,1.4,4.437-.234,2.569-.7,5.138a36.971,36.971,0,0,1-2.1,7.239l-1.4,2.8a5.9,5.9,0,0,0-.7,1.4,3.659,3.659,0,0,0-.7.934,24.61,24.61,0,0,1-1.4,2.1L.934,25.688A14.127,14.127,0,0,1,0,26.855a5.4,5.4,0,0,0,.7-1.168,15.271,15.271,0,0,0,.934-1.635A13.035,13.035,0,0,0,2.8,22.185a9.058,9.058,0,0,1,.467-1.168,5.9,5.9,0,0,0,.7-1.4,21.4,21.4,0,0,1,1.168-2.8A50.632,50.632,0,0,0,7.006,9.808c.467-2.569.467-4.9.7-7.239q0-1.4,0-2.569Z" transform="translate(32.383 252.44)" fill="#7781cb"/>
    <path id="Path_28537" data-name="Path 28537" d="M.934,7.706a.673.673,0,0,1,.234.467A27.7,27.7,0,0,1,0,2.335V0A39.5,39.5,0,0,1,.7,4.9a4.408,4.408,0,0,1,.234,1.4q0,.7,0,1.4Z" transform="translate(38.922 244.267)" fill="#7781cb"/>
    <path id="Path_28538" data-name="Path 28538" d="M2.569,11.209q0,1.168,0,2.335-.7-2.1-1.4-4.437,0-.234,0-.467a.673.673,0,0,0-.234-.467q0-.7,0-1.4A4.408,4.408,0,0,0,.7,5.371,39.5,39.5,0,0,0,0,.467V0C.234,0,1.168,1.868,1.868,5.138q0,.234,0,.7a.952.952,0,0,1,.234.7,4.408,4.408,0,0,0,.234,1.4,23.09,23.09,0,0,1,.234,3.269Z" transform="translate(38.922 243.8)" fill="#7781cb"/>
    <path id="Path_28539" data-name="Path 28539" d="M0,0V0Z" transform="translate(38.922 243.8)" fill="#7781cb"/>
    <path id="Path_28540" data-name="Path 28540" d="M.7,2.8a159.015,159.015,0,0,0,7.006,20.55,59.377,59.377,0,0,0,2.569,6.072,18.357,18.357,0,0,1,.934,2.1,21.588,21.588,0,0,1-1.168-2.1,60.525,60.525,0,0,1-3.036-5.838A89.647,89.647,0,0,1,.7,7.706q0-1.168,0-2.335A23.09,23.09,0,0,0,.467,2.1,4.408,4.408,0,0,1,.234.7.952.952,0,0,0,0,0,18.441,18.441,0,0,1,.7,2.8Z" transform="translate(40.79 249.638)" fill="#7781cb"/>
    <path id="Path_28541" data-name="Path 28541" d="M7.706.7A1.792,1.792,0,0,0,7.94,0q0,.234,0,.467L7.006,2.8A34.089,34.089,0,0,1,5.138,7.94C3.736,11.209,2.1,14.712.7,18.215A9.127,9.127,0,0,0,0,20.083a8.816,8.816,0,0,1,.467-2.8,23.887,23.887,0,0,1,1.868-4.9q1.168-2.335,2.1-3.97a32.1,32.1,0,0,0,2.8-6.072A7.239,7.239,0,0,1,7.706.7Z" transform="translate(39.155 223.25)" fill="#7781cb"/>
    <path id="Path_28542" data-name="Path 28542" d="M8.173.7A10.046,10.046,0,0,1,7.94,2.569a24.6,24.6,0,0,1-2.1,6.305C4.67,11.443,2.8,14.245,2.1,17.748a21.3,21.3,0,0,0-.234,8.64q0-.467,0-.7C1.168,22.418.234,20.55,0,20.55a.673.673,0,0,1,.234-.467,9.127,9.127,0,0,1,.7-1.868c1.4-3.5,3.036-7.006,4.437-10.275A34.09,34.09,0,0,0,7.239,2.8L8.173.467V0h0s0,.234,0,.7Z" transform="translate(38.922 223.25)" fill="#7781cb"/>
    <path id="Path_28543" data-name="Path 28543" d="M.528,1.168a1.792,1.792,0,0,0,.234.7q.234,1.168.467,2.569A2.073,2.073,0,0,1,.995,3.5C.294,1.4-.173,0,.061,0L.294.7a.673.673,0,0,1,.234.467Z" transform="translate(54.741 243.566)" fill="#7781cb"/>
    <path id="Path_28544" data-name="Path 28544" d="M.467,1.168a1.792,1.792,0,0,1-.234-.7A.673.673,0,0,0,0,0,.673.673,0,0,1,.234.467,1.792,1.792,0,0,0,.467,1.168Z" transform="translate(55.035 244.267)" fill="#7781cb"/>
    <path id="Path_28545" data-name="Path 28545" d="M.545,2.569A.673.673,0,0,0,.311,2.1Q-.156.234.078,0V.234Z" transform="translate(54.724 242.165)" fill="#7781cb"/>
    <path id="Path_28546" data-name="Path 28546" d="M1.868,5.838A78.939,78.939,0,0,0,5.6,14.245a30.537,30.537,0,0,0-1.868-3.269A59.854,59.854,0,0,1,.467,2.569Q.234,1.168,0,0A32.217,32.217,0,0,0,1.868,5.838Z" transform="translate(55.502 245.435)" fill="#7781cb"/>
    <path id="Path_28547" data-name="Path 28547" d="M25.688,4.9a14.946,14.946,0,0,1-.934,5.138,18.754,18.754,0,0,1-3.036,5.6,29,29,0,0,1-5.371,3.97,11.235,11.235,0,0,0-2.569,2.1,7.652,7.652,0,0,0-1.168.934c-.234.467-.7.7-.934,1.168A19.755,19.755,0,0,0,8.64,28.957q-1.168,2.569-2.1,5.138Q5.6,36.43,4.67,38.532A37.722,37.722,0,0,1,1.4,44.837a8.891,8.891,0,0,1-1.168,1.4L0,46.7l.234-.467A10.153,10.153,0,0,0,1.168,44.6,27.458,27.458,0,0,0,3.97,38.3q.7-2.1,1.635-4.671c.467-1.635,1.168-3.269,1.868-5.138a22.066,22.066,0,0,1,3.036-5.6,18,18,0,0,1,4.9-4.437,29.083,29.083,0,0,0,5.138-3.736,12.414,12.414,0,0,0,2.8-5.138A17.224,17.224,0,0,0,24.053,0a2.716,2.716,0,0,1,.467.7q.467,1.868,1.168,4.2Z" transform="translate(43.826 287.235)" fill="#7781cb"/>
    <path id="Path_28548" data-name="Path 28548" d="M.234,1.635A6.861,6.861,0,0,1,0,0,21.591,21.591,0,0,0,.7,2.569a2.717,2.717,0,0,0-.467-.7V1.635Z" transform="translate(67.645 285.367)" fill="#7781cb"/>
    <path id="Path_28549" data-name="Path 28549" d="M0,0A24.239,24.239,0,0,1,.934,3.036,29.805,29.805,0,0,1,0,0Z" transform="translate(66.711 282.331)" fill="#7781cb"/>
    <path id="Path_28550" data-name="Path 28550" d="M1.168,4.2Q.467,1.868,0,0A15.266,15.266,0,0,0,.934,1.635,13.121,13.121,0,0,1,1.168,4.2Z" transform="translate(68.346 287.936)" fill="#7781cb"/>
    <path id="Path_28551" data-name="Path 28551" d="M2.335,4.7a17.018,17.018,0,0,1,.234,2.8,15.266,15.266,0,0,1-.934-1.635,21.59,21.59,0,0,1-.7-2.569h0A24.239,24.239,0,0,0,0,.259V.025C.234-.208.934,1.193,2.1,3.762a2.073,2.073,0,0,0,.234.934Z" transform="translate(66.711 282.073)" fill="#7781cb"/>
    <path id="Path_28552" data-name="Path 28552" d="M40.4,1.168A2.6,2.6,0,0,1,40.633,0,86.967,86.967,0,0,0,41.1,9.107a82.508,82.508,0,0,1-1.4,9.808q-.234,1.168-.467,2.1a1.792,1.792,0,0,1-.234.7,7.24,7.24,0,0,0-.467,1.635,32.1,32.1,0,0,1-2.8,6.072q-.934,1.635-2.1,3.97a23.886,23.886,0,0,0-1.868,4.9,8.815,8.815,0,0,0-.467,2.8c-1.168,3.036-2.1,5.838-3.036,8.64a60.674,60.674,0,0,1-4.67,9.575A68.313,68.313,0,0,1,12.143,72.86c-3.5,3.5-6.772,6.072-8.874,7.94C1.168,82.434,0,83.368,0,83.6c0-.234,1.168-1.168,3.036-3.036,2.1-1.868,5.138-4.67,8.64-8.173A76.336,76.336,0,0,0,22.418,58.615a51.826,51.826,0,0,0,4.437-9.341c1.168-3.5,2.335-7.006,3.736-10.742,1.4-3.5,3.036-7.006,4.437-10.275a46.449,46.449,0,0,0,2.1-4.9,13.313,13.313,0,0,1,.7-2.335l.467-2.335c1.4-6.539,1.635-12.61,2.1-17.514Z" transform="translate(7.863 202.232)" fill="#7781cb"/>
    <path id="Path_28553" data-name="Path 28553" d="M1.635,3.269A32,32,0,0,0,0,0,2.961,2.961,0,0,1,.7,1.4,10.366,10.366,0,0,1,1.635,3.269Z" transform="translate(65.777 278.829)" fill="#7781cb"/>
    <path id="Path_28554" data-name="Path 28554" d="M.467.7q.7.934,1.168,1.635A75.045,75.045,0,0,1,3.5,10.742a69.9,69.9,0,0,1,.934,7.473A26.659,26.659,0,0,1,3.97,24.52a5.165,5.165,0,0,1-2.335,3.5c-.467.234-.7.467-.934.467a.815.815,0,0,1-.467-.234H.7a2.407,2.407,0,0,0,.934-.467,5.462,5.462,0,0,0,1.635-3.5,25.386,25.386,0,0,0-.234-5.838q-.467-3.5-.934-7.473C1.4,7.94.934,5.138.234,2.569A13.122,13.122,0,0,0,0,0,2.717,2.717,0,0,0,.467.7Z" transform="translate(69.28 289.571)" fill="#7781cb"/>
    <path id="Path_28555" data-name="Path 28555" d="M2.335,4.2q.7,1.635,1.4,3.736C2.569,5.371,1.868,3.97,1.635,4.2t0,.234q-.467-1.168-.7-1.868A19.068,19.068,0,0,1,0,0Q.234,0,.7.934A32,32,0,0,1,2.335,4.2h0Z" transform="translate(65.076 277.895)" fill="#7781cb"/>
    <path id="Path_28556" data-name="Path 28556" d="M.467,3.736A17.018,17.018,0,0,0,.234.934,2.072,2.072,0,0,1,0,0,9.061,9.061,0,0,0,.467,1.168L2.1,6.072q-.467-.7-1.168-1.635A2.716,2.716,0,0,1,.467,3.736Z" transform="translate(68.813 285.834)" fill="#7781cb"/>
    <path id="Path_28557" data-name="Path 28557" d="M3.5,8.407a66.679,66.679,0,0,0,4.67,8.874,7.319,7.319,0,0,0,1.4,1.868,29.022,29.022,0,0,1-4.2-5.838A82.847,82.847,0,0,1,1.4,4.437a9.152,9.152,0,0,0-.934-2.1L0,0Q.234.467.934,2.1C1.635,3.5,2.335,5.838,3.5,8.407Z" transform="translate(54.801 242.399)" fill="#7781cb"/>
    <path id="Path_28558" data-name="Path 28558" d="M27.089,15.88c.7-4.2,1.168-8.173,1.4-11.443Q28.724,2.1,28.957,0q0,5.6,0,10.976l-.467,5.138a87.084,87.084,0,0,1-3.036,13.778,29.118,29.118,0,0,1-3.5,6.539,48.772,48.772,0,0,1-4.67,5.138,79.192,79.192,0,0,1-8.407,7.706,46.634,46.634,0,0,1-6.305,4.437L.7,54.645l-.7.234.467-.234q.7-.467,1.868-1.168a38.74,38.74,0,0,0,6.072-4.67,90,90,0,0,0,7.94-8.173A46.7,46.7,0,0,0,20.784,35.5a37.654,37.654,0,0,0,3.269-6.072A79.4,79.4,0,0,0,27.089,15.88Z" transform="translate(19.072 183.083)" fill="#7781cb"/>
    <path id="Path_28559" data-name="Path 28559" d="M.467,13.077A106.849,106.849,0,0,1,1.4,1.4,4.408,4.408,0,0,1,1.635,0Q1.868,12.844,2.8,24.987A246.247,246.247,0,0,0,5.838,52.076v-.234q-.234.234.234,2.1l-.234-.7c-.234,0,.234,1.4.934,3.5a2.073,2.073,0,0,0,.234.934q0,.234,0,.467a142.825,142.825,0,0,0,9.107,28.724,12.814,12.814,0,0,1,.7,1.635q-.467-.934-.7-.934a19.069,19.069,0,0,0,.934,2.569q.234.7.7,1.868a29.813,29.813,0,0,0,.934,3.036h0a6.861,6.861,0,0,0,.234,1.635v.234a100.384,100.384,0,0,1-4.67-9.107A152.8,152.8,0,0,1,4.67,58.615,288.6,288.6,0,0,1,.234,25.221,38.036,38.036,0,0,1,0,21.017c.234-2.8.234-5.371.467-7.94Z" transform="translate(48.963 190.323)" fill="#7781cb"/>
    <path id="Path_28560" data-name="Path 28560" d="M1.635,1.168A9.06,9.06,0,0,1,2.1,0V1.868a4.408,4.408,0,0,0-.234,1.4A106.848,106.848,0,0,0,.934,14.946C.7,17.514.7,20.083.467,22.885A86.968,86.968,0,0,1,0,13.778,54.788,54.788,0,0,1,1.4,3.036,7.677,7.677,0,0,0,1.635,1.168Z" transform="translate(48.496 188.454)" fill="#7781cb"/>
    <path id="Path_28561" data-name="Path 28561" d="M0,2.569v-1.4H0Q.234,0,.467,0L.234,1.168A6.387,6.387,0,0,1,0,2.569Z" transform="translate(50.598 187.287)" fill="#7781cb"/>
    <path id="Path_28562" data-name="Path 28562" d="M.7,3.036C.7,4.67.7,7.473.467,10.742A48.164,48.164,0,0,1,0,17.047Q0,11.676,0,6.072C.234,2.335.234,0,.467,0S.7,1.168.7,3.036Z" transform="translate(48.029 177.012)" fill="#7781cb"/>
    <path id="Path_28563" data-name="Path 28563" d="M.234,1.868A7.677,7.677,0,0,0,0,0,2.073,2.073,0,0,1,.234.934h0Z" transform="translate(50.131 179.114)" fill="#7781cb"/>
    <path id="Path_28564" data-name="Path 28564" d="M.467,1.868q0,.467,0,.934h0a2.073,2.073,0,0,0-.234-.934A7.677,7.677,0,0,1,0,0Q.234.7.467,1.635q0,.234,0,.234Z" transform="translate(49.897 177.245)" fill="#7781cb"/>
    <path id="Path_28565" data-name="Path 28565" d="M0,.234q.234.934.467,2.1a.673.673,0,0,1-.234-.467A10.046,10.046,0,0,1,0,0Z" transform="translate(49.43 174.91)" fill="#7781cb"/>
    <path id="Path_28566" data-name="Path 28566" d="M.1,0V.234A10.046,10.046,0,0,0,.337,2.1a.673.673,0,0,0,.234.467A7.677,7.677,0,0,0,.8,4.437,13.313,13.313,0,0,1,.1,2.1,6.176,6.176,0,0,1,.1,0Z" transform="translate(49.327 174.677)" fill="#7781cb"/>
    <path id="Path_28567" data-name="Path 28567" d="M0,.7V.467H0A.673.673,0,0,0,.234,0h0q0,.234,0,.467Z" transform="translate(49.43 174.21)" fill="#7781cb"/>
    <path id="Path_28568" data-name="Path 28568" d="M27.789,10.042A66.128,66.128,0,0,1,32.46,3.5,28.944,28.944,0,0,1,35.029,0a38.465,38.465,0,0,0-2.1,3.269q-1.635,2.569-3.036,5.138t-2.569,4.9c-2.569,3.736-5.371,7.006-7.706,10.042q-2.335,2.8-4.437,5.371a35.669,35.669,0,0,1-4.2,4.2,21.207,21.207,0,0,1-7.94,3.736q-1.4.467-2.335.7H0l.7-.234q.934-.234,2.335-.7a25.306,25.306,0,0,0,7.239-3.97,24.416,24.416,0,0,0,3.97-4.437q2.1-2.569,4.2-5.371c3.036-3.736,6.072-7.94,9.341-12.61Z" transform="translate(8.797 128.906)" fill="#7781cb"/>
    <path id="Path_28569" data-name="Path 28569" d="M7.706,7.94a37.022,37.022,0,0,0,6.305,4.2,9.129,9.129,0,0,0-1.868-.7,26.1,26.1,0,0,1-2.8-1.635A26.473,26.473,0,0,1,.7.7L0,0A35.052,35.052,0,0,0,7.706,7.94Z" transform="translate(61.107 259.68)" fill="#7781cb"/>
    <path id="Path_28570" data-name="Path 28570" d="M.234.7A67.064,67.064,0,0,0,2.1,9.575Q1.168,7.473.467,5.6L0,4.67V0A.952.952,0,0,1,.234.7Z" transform="translate(50.364 174.21)" fill="#7781cb"/>
    <path id="Path_28571" data-name="Path 28571" d="M5.371,4.9a31.358,31.358,0,0,0,6.072,3.97,9.126,9.126,0,0,1-1.868-.7,26.113,26.113,0,0,1-2.8-1.635A22.611,22.611,0,0,1,0,0,27.614,27.614,0,0,0,5.371,4.9Z" transform="translate(64.376 261.548)" fill="#7781cb"/>
    <path id="Path_28572" data-name="Path 28572" d="M.467,0c.234,0,0,3.97.7,10.509q0,2.335,0,4.67Q.934,14.245.7,13.544q-.234-1.168-.467-2.1s0-.078,0-.234l.234-.234v-.467h0a.673.673,0,0,1-.234.467h0C.234,9.341,0,7.94,0,6.539v-3.5A26.027,26.027,0,0,1,.467,0Z" transform="translate(49.197 163.701)" fill="#7781cb"/>
    <path id="Path_28573" data-name="Path 28573" d="M6.772,18.215a16.8,16.8,0,0,0,2.1,2.569c0,.234,1.168,1.868,2.8,4.67a2.073,2.073,0,0,0,.234.934,42.429,42.429,0,0,1-3.5-5.138A66.621,66.621,0,0,1,1.868,7.473Q.7,3.97,0,.934V0Q.7,1.868,1.4,4.2c1.168,3.036,2.569,6.772,3.97,10.742a14.78,14.78,0,0,0,1.4,3.269Z" transform="translate(50.364 180.048)" fill="#7781cb"/>
    <path id="Path_28574" data-name="Path 28574" d="M.467.467A.673.673,0,0,0,0,.234V0Q.234,0,.934.7A.673.673,0,0,1,.467.467Z" transform="translate(59.238 200.598)" fill="#7781cb"/>
    <path id="Path_28575" data-name="Path 28575" d="M11.443,17.514a78.3,78.3,0,0,0,7.239,8.407l-.234.234h0q0-.234-.234.234a3.821,3.821,0,0,0,.234.934c.467.467.7,1.168,1.4,1.868a129.665,129.665,0,0,1-9.808-10.509A87.153,87.153,0,0,1,3.5,9.808L1.868,4.9A9.059,9.059,0,0,1,1.4,3.736Q.7,1.635,0,0A67.293,67.293,0,0,0,4.2,7.239a67.185,67.185,0,0,0,7.239,10.275Z" transform="translate(67.412 282.098)" fill="#7781cb"/>
    <path id="Path_28576" data-name="Path 28576" d="M0,30.125Q.234,14.712.7,0q.234,1.635.467,3.036a29.221,29.221,0,0,0,1.868,4.67q-.234,8.64-.467,17.514c-.7-6.539-.467-10.509-.7-10.509A26.026,26.026,0,0,0,1.4,17.748q0,1.4,0,3.5c0,1.4.234,2.8.234,4.437a6.176,6.176,0,0,0,0,2.1,13.313,13.313,0,0,0,.7,2.335,7.677,7.677,0,0,1,.234,1.868q0,3.736.234,7.473a9.06,9.06,0,0,0-.467,1.168A7.677,7.677,0,0,1,2.1,42.5,54.789,54.789,0,0,0,.7,53.244Q.467,49.274.234,45.07A48.164,48.164,0,0,0,.7,38.765c.234-3.269.234-6.072.234-7.706,0-1.868,0-3.036-.234-3.036S.467,30.358.234,34.095A32.042,32.042,0,0,1,0,30.125Z" transform="translate(47.796 148.989)" fill="#7781cb"/>
    <path id="Path_28577" data-name="Path 28577" d="M9.808,21.718q.467.7,1.168,1.635a7.653,7.653,0,0,1-1.168-.934q-.7-.7-.934-.7v.234a16.8,16.8,0,0,1-2.1-2.569,14.78,14.78,0,0,1-1.4-3.269c-1.4-3.97-2.8-7.706-3.97-10.742Q.7,3.036,0,1.168V0L.467.934Q1.168,2.8,2.1,4.9A27.425,27.425,0,0,0,3.269,8.173,59.466,59.466,0,0,0,9.808,21.718Z" transform="translate(50.364 178.88)" fill="#7781cb"/>
    <path id="Path_28578" data-name="Path 28578" d="M14.3,3.5Q15.7,1.635,17.1,0q-1.168,1.635-2.335,3.5-1.4,2.335-2.8,4.9C10.1,11.91,8.23,15.413,6.6,18.682a96.771,96.771,0,0,0-3.5,10.042A77.519,77.519,0,0,0,.757,46.7q0,3.97.234,7.006a50.219,50.219,0,0,1,.467,5.371A10.826,10.826,0,0,1,.99,62.351a1.792,1.792,0,0,0-.234.7q0,.234,0,.467,0-.234,0-.467a1.793,1.793,0,0,1,.234-.7c0-.7.234-1.868.234-3.269a24.233,24.233,0,0,0-.7-5.371A62.134,62.134,0,0,1,.056,46.7,66.019,66.019,0,0,1,1.925,28.49a53.439,53.439,0,0,1,3.5-10.275Q6.6,15.413,8,12.61a21.25,21.25,0,0,0,1.635-2.335C11.266,7.94,12.667,5.6,14.3,3.5Z" transform="translate(28.123 129.606)" fill="#7781cb"/>
    <path id="Path_28579" data-name="Path 28579" d="M4.67,5.916q-1.4-1.4-3.036-2.8c-.7-.7-.934-1.4-1.4-1.868A3.822,3.822,0,0,1,0,.311Q.234-.156.234.078h0A2.891,2.891,0,0,1,.7.778,23.38,23.38,0,0,1,2.8,3.114a21.853,21.853,0,0,1,1.868,2.8Z" transform="translate(85.627 308.175)" fill="#7781cb"/>
    <path id="Path_28580" data-name="Path 28580" d="M.934.467a15.488,15.488,0,0,1,4.437,2.1A56.953,56.953,0,0,1,0,0L.934.467Z" transform="translate(75.819 270.422)" fill="#7781cb"/>
    <path id="Path_28581" data-name="Path 28581" d="M6.072,3.036Q3.036,1.635,0,0A9.057,9.057,0,0,1,1.168.467a21.394,21.394,0,0,1,2.8,1.168H4.2l1.4.934.467.467Z" transform="translate(75.118 271.823)" fill="#7781cb"/>
    <path id="Path_28582" data-name="Path 28582" d="M.234,0H0A15.263,15.263,0,0,1,1.635.934L.234,0Z" transform="translate(79.088 273.458)" fill="#7781cb"/>
    <path id="Path_28583" data-name="Path 28583" d="M0,0Q1.868,2.1,3.736,3.97A27.426,27.426,0,0,1,4.9,7.239a30.05,30.05,0,0,1,.7,3.97c.234,2.569-.234,5.138-.234,7.239a26.311,26.311,0,0,0,0,6.072c.234,1.635.467,3.036.7,3.97l.467,1.4-.7-1.4c-.234-.934-.7-2.335-1.168-3.97a22.839,22.839,0,0,1-.7-6.072c0-2.335.234-4.67,0-7.239a12.7,12.7,0,0,0-.467-3.5A15.988,15.988,0,0,0,2.335,4.437,38.419,38.419,0,0,0,0,0Z" transform="translate(62.274 206.436)" fill="#7781cb"/>
    <path id="Path_28584" data-name="Path 28584" d="M3.736,3.736a35.158,35.158,0,0,1,2.1,5.371A46.69,46.69,0,0,1,7.473,19.149q0,1.868,0,3.036,0,.934,0,1.168s-.467-1.635-.934-4.2a65.83,65.83,0,0,0-2.1-9.575,39.216,39.216,0,0,0-2.1-5.138A13.883,13.883,0,0,0,.234.7,1.792,1.792,0,0,1,0,0Q1.635,1.4,3.036,2.8a3.659,3.659,0,0,1,.7.934Z" transform="translate(87.261 311.289)" fill="#7781cb"/>
    <path id="Path_28585" data-name="Path 28585" d="M.1,6.539A27.429,27.429,0,0,1,.33.234Q.33,0,.33,0,.33,3.269.1,6.539Z" transform="translate(48.4 142.45)" fill="#7781cb"/>
    <path id="Path_28586" data-name="Path 28586" d="M0,0A17.554,17.554,0,0,0,3.036,1.168l.467.467Q1.868.934.467.467Z" transform="translate(80.723 274.392)" fill="#7781cb"/>
    <path id="Path_28587" data-name="Path 28587" d="M3.5,4.2A21.32,21.32,0,0,1,6.539,9.341l.234.234Q4.9,7.706,3.036,5.6A2.073,2.073,0,0,1,2.8,4.67C1.168,1.868,0,.234,0,0A.673.673,0,0,1,.467.234.673.673,0,0,0,.934.467c.467.7,1.4,2.1,2.569,3.736Z" transform="translate(59.238 200.831)" fill="#7781cb"/>
    <path id="Path_28588" data-name="Path 28588" d="M.934.934,0,0Q1.868.934,3.97,1.868a1.792,1.792,0,0,1-.7-.234L1.4,1.168A.673.673,0,0,1,.934.934Z" transform="translate(81.19 272.99)" fill="#7781cb"/>
    <path id="Path_28589" data-name="Path 28589" d="M27.322,29.424a11.241,11.241,0,0,1-3.036-1.168,5.1,5.1,0,0,1-1.168-.7h-.7l.467.467a6.957,6.957,0,0,0,.934.7,21.4,21.4,0,0,0-2.8-1.168,9.065,9.065,0,0,0-1.168-.467h0a37.022,37.022,0,0,1-6.305-4.2,35.052,35.052,0,0,1-7.706-7.94A78.939,78.939,0,0,1,2.1,6.539,32.217,32.217,0,0,1,.234.7,1.792,1.792,0,0,1,0,0,9.153,9.153,0,0,1,.934,2.1,82.847,82.847,0,0,0,4.9,10.976a29.022,29.022,0,0,0,4.2,5.838,22.612,22.612,0,0,0,6.772,6.539,26.1,26.1,0,0,0,2.8,1.635,9.129,9.129,0,0,0,1.868.7h0a56.954,56.954,0,0,0,5.371,2.569l.934.934a.673.673,0,0,0,.467.234Z" transform="translate(55.268 244.734)" fill="#7781cb"/>
    <path id="Path_28590" data-name="Path 28590" d="M1.868.7A11.241,11.241,0,0,0,4.9,1.868a9.279,9.279,0,0,1,1.168,1.4A17.555,17.555,0,0,1,3.036,2.1,15.268,15.268,0,0,0,1.4,1.168h0a6.956,6.956,0,0,1-.934-.7L0,0H.7A5.105,5.105,0,0,0,1.868.7Z" transform="translate(77.687 272.29)" fill="#7781cb"/>
    <path id="Path_28591" data-name="Path 28591" d="M1.241,2.1A10.518,10.518,0,0,0,1.708,0h.234q-.467,9.107-.7,18.682l-.467-1.4A20.508,20.508,0,0,1,.307,8.173C.54,5.6,1.007,3.5,1.241,2.1Z" transform="translate(49.591 134.51)" fill="#7781cb"/>
    <path id="Path_28592" data-name="Path 28592" d="M4.437,3.5a19.247,19.247,0,0,1,1.4,4.437,28.7,28.7,0,0,1,.934,6.772q.234,2.1.234,2.569a18.281,18.281,0,0,0-.467-2.569,37.056,37.056,0,0,0-1.4-6.539A31.19,31.19,0,0,0,3.5,3.97,17.412,17.412,0,0,0,.234,0H0Q1.4.467,3.036,1.168L4.437,3.5Z" transform="translate(81.19 274.859)" fill="#7781cb"/>
    <path id="Path_28593" data-name="Path 28593" d="M6.539,2.335a46.459,46.459,0,0,1-4.9-.7A.673.673,0,0,1,1.168,1.4,9.279,9.279,0,0,0,0,0L1.868.467a1.792,1.792,0,0,0,.7.234h0a30.268,30.268,0,0,1,3.97,1.635Z" transform="translate(82.591 274.158)" fill="#7781cb"/>
    <path id="Path_28594" data-name="Path 28594" d="M1.868,2.1A9.589,9.589,0,0,1,2.8,0V.234a10.518,10.518,0,0,1-.467,2.1c-.234,1.4-.7,3.5-.934,6.072a20.508,20.508,0,0,0,.467,9.107l.467,1.4q0,1.868,0,3.5a29.221,29.221,0,0,1-1.868-4.67Q.234,16.347,0,14.712q.234-3.269.234-6.539A42.69,42.69,0,0,1,1.868,2.1Z" transform="translate(48.496 134.277)" fill="#7781cb"/>
    <path id="Path_28595" data-name="Path 28595" d="M3.269,0,2.8,14.479H2.569q0-.234,0-.234a9.588,9.588,0,0,0-.934,2.1A42.689,42.689,0,0,0,0,22.418Q.467,13.311.934,4.437A14.416,14.416,0,0,0,2.569,1.868,9.126,9.126,0,0,0,3.269,0Z" transform="translate(48.73 120.032)" fill="#7781cb"/>
    <path id="Path_28596" data-name="Path 28596" d="M10.042,4.2c1.168-1.4,2.569-2.8,3.5-4.2-1.168,1.868-2.335,3.97-3.736,5.838a5.894,5.894,0,0,1-.7,1.4q-1.4,1.635-2.8,3.5c-1.635,2.1-3.036,4.437-4.67,6.772A21.248,21.248,0,0,1,0,19.85q1.168-2.335,2.569-4.9T5.6,9.808a38.463,38.463,0,0,1,2.1-3.269L10.042,4.2Z" transform="translate(36.119 122.367)" fill="#7781cb"/>
    <path id="Path_28597" data-name="Path 28597" d="M4.437,2.335A24.067,24.067,0,0,1,1.868,5.371,25.478,25.478,0,0,0,0,7.473a5.894,5.894,0,0,0,.7-1.4C2.1,4.2,3.269,2.1,4.437.234V0Q4.437,1.168,4.437,2.335Z" transform="translate(45.227 122.133)" fill="#7781cb"/>
    <path id="Path_28598" data-name="Path 28598" d="M5.838,4.67c-.934,1.4-2.335,2.8-3.5,4.2L0,11.209l.934-1.4A32.674,32.674,0,0,0,5.838.467.673.673,0,0,0,6.072,0q0,2.1-.234,4.437Z" transform="translate(43.826 117.696)" fill="#7781cb"/>
    <path id="Path_28599" data-name="Path 28599" d="M1.4,4.9A20.3,20.3,0,0,0,2.569,0V.234h0A7.677,7.677,0,0,1,2.335,2.1,14.737,14.737,0,0,1,.467,7.473L0,8.407H0A20.5,20.5,0,0,0,1.4,4.9Z" transform="translate(49.664 113.727)" fill="#7781cb"/>
    <path id="Path_28600" data-name="Path 28600" d="M.467,7.239A14.737,14.737,0,0,0,2.335,1.868,7.677,7.677,0,0,0,2.569,0q0,3.036-.234,6.072a9.127,9.127,0,0,1-.7,1.868A14.416,14.416,0,0,1,0,10.509V8.173l.467-.934Z" transform="translate(49.664 113.96)" fill="#7781cb"/>
    <path id="Path_28601" data-name="Path 28601" d="M0,5.6A38.035,38.035,0,0,0,.234,1.4q0-.7,0-1.4A53.125,53.125,0,0,1,0,5.6H0Z" transform="translate(52.233 108.122)" fill="#7781cb"/>
    <path id="Path_28602" data-name="Path 28602" d="M20.55,29.424a3.676,3.676,0,0,0,1.4.934.673.673,0,0,0,.467.234l-.467-.234a6.074,6.074,0,0,1-1.635-.934,10.569,10.569,0,0,1-1.868-1.868,16.014,16.014,0,0,1-1.635-3.269c-.467-1.4-.934-2.569-1.4-3.97a14.527,14.527,0,0,0-2.569-4.2c-2.335-2.569-5.6-4.437-8.64-7.239A24.787,24.787,0,0,1,.234,4.2.951.951,0,0,1,0,3.5V0A24.1,24.1,0,0,0,1.635,3.5a17.984,17.984,0,0,0,3.5,4.2c3.036,2.569,6.305,4.9,8.64,7.706a12.243,12.243,0,0,1,2.569,4.437,28.233,28.233,0,0,1,1.168,4.2,11.62,11.62,0,0,0,3.036,5.371Z" transform="translate(50.831 153.192)" fill="#7781cb"/>
    <path id="Path_28603" data-name="Path 28603" d="M0,3.97V0A.206.206,0,0,1,.234.234,30.1,30.1,0,0,1,0,3.97Z" transform="translate(52.466 104.152)" fill="#7781cb"/>
    <path id="Path_28604" data-name="Path 28604" d="M1.168.7a34.726,34.726,0,0,1,0,8.64A14.163,14.163,0,0,1,0,13.311q.234-3.036.234-6.072h0q0-.234,0-.234h0Q.7,4.437.934,2.1q0-.934,0-2.1a.951.951,0,0,1,.234.7Z" transform="translate(51.999 106.721)" fill="#7781cb"/>
    <path id="Path_28605" data-name="Path 28605" d="M0,9.341a53.125,53.125,0,0,0,.234-5.6A30.1,30.1,0,0,0,.467,0,8.194,8.194,0,0,1,.7,2.335q0,1.168,0,2.1Q.467,6.772,0,9.341Z" transform="translate(52.233 104.386)" fill="#7781cb"/>
    <path id="Path_28606" data-name="Path 28606" d="M24.754,24.987a5.807,5.807,0,0,1,.467,3.036,4.8,4.8,0,0,0-.7-3.036,10.977,10.977,0,0,0-2.1-2.8,29.173,29.173,0,0,0-3.97-2.8q-.934-.7-2.335-1.635a21.252,21.252,0,0,1-2.335-1.635l-1.4-.934a4.169,4.169,0,0,1-1.168-1.168l-1.4-.934a9.277,9.277,0,0,0-1.4-1.168q-1.168-1.4-2.569-2.8L5.6,8.874A21.32,21.32,0,0,0,2.569,3.736C1.4,2.1.467.7,0,0A7.654,7.654,0,0,0,1.168.934,72.561,72.561,0,0,0,9.341,10.976a9.279,9.279,0,0,1,1.4,1.168l1.168,1.168a7.651,7.651,0,0,1,1.168.934,5.009,5.009,0,0,0,1.168.934q1.4.934,2.569,1.868t2.1,1.635a20.013,20.013,0,0,1,3.736,3.269,11.873,11.873,0,0,1,2.1,3.036Z" transform="translate(60.172 201.298)" fill="#7781cb"/>
    <path id="Path_28607" data-name="Path 28607" d="M.467.467q0,2.569,0,5.838,0,3.036-.234,6.305A8.194,8.194,0,0,0,0,10.275Q.234,4.9.234,0A.673.673,0,0,1,.467.467Z" transform="translate(52.7 94.11)" fill="#7781cb"/>
    <path id="Path_28608" data-name="Path 28608" d="M2.569,4.2q-.234,3.97-.467,9.575c0,2.569,0,5.371-.234,8.407A67.063,67.063,0,0,1,0,31.059l.467-8.407Q.934,10.976,1.635,0q.467,2.335.934,3.97V4.2h0Z" transform="translate(49.897 86.638)" fill="#7781cb"/>
    <path id="Path_28609" data-name="Path 28609" d="M2.8,0q.234,1.168.467,3.269,0,4.9-.234,10.275a.206.206,0,0,0-.234-.234s0,1.168,0,3.269q0,.234,0,.7,0,.7,0,1.4a38.035,38.035,0,0,1-.234,4.2,20.3,20.3,0,0,1-1.168,4.9,20.5,20.5,0,0,1-1.4,3.5q.234-2.335.234-4.437A67.063,67.063,0,0,0,2.1,17.981c.234-3.036.234-5.838.234-8.407Q2.569,3.97,2.8,0Z" transform="translate(49.664 90.841)" fill="#7781cb"/>
    <path id="Path_28610" data-name="Path 28610" d="M0,0A5.209,5.209,0,0,0,.7,1.868a4.408,4.408,0,0,1-.234,1.4Q.234,1.168,0,0H0Z" transform="translate(52.466 90.841)" fill="#7781cb"/>
    <path id="Path_28611" data-name="Path 28611" d="M0,0Z" transform="translate(52.466 90.841)" fill="#7781cb"/>
    <path id="Path_28612" data-name="Path 28612" d="M.234,0q0,.934,0,1.868A.673.673,0,0,0,0,1.4,4.408,4.408,0,0,0,.234,0Z" transform="translate(52.933 92.709)" fill="#7781cb"/>
    <path id="Path_28613" data-name="Path 28613" d="M.467.311A3.842,3.842,0,0,0,.234,1.479h0L0,.078Q.234-.156.467.311Z" transform="translate(52.233 89.362)" fill="#7781cb"/>
    <path id="Path_28614" data-name="Path 28614" d="M.234,1.4A4.408,4.408,0,0,1,0,0,2.073,2.073,0,0,0,.234.934q0,.234,0,.467Z" transform="translate(51.299 85.237)" fill="#7781cb"/>
    <path id="Path_28615" data-name="Path 28615" d="M0,1.168H0v0Z" transform="translate(53.167 91.542)" fill="#7781cb"/>
    <path id="Path_28616" data-name="Path 28616" d="M9.574,39.933c1.168,3.736,2.569,7.006,3.269,9.808a59.082,59.082,0,0,1,1.168,6.772q0,.7,0,1.168t0,.7v0q0-.234,0-.7a2.6,2.6,0,0,1-.234-1.168,43.335,43.335,0,0,0-1.635-6.539c-.934-2.8-2.335-5.838-3.736-9.575q-.934-2.8-1.868-5.838-.7-3.036-1.4-6.305C3.736,19.383,1.868,11.676.7,5.838Q.234,3.5,0,1.868V0A2.535,2.535,0,0,0,.467.934,92.241,92.241,0,0,0,3.036,14.011a55,55,0,0,0,2.1,5.371q.7,4.2,1.635,8.64.467,3.269,1.168,6.305a48,48,0,0,0,1.635,5.6Z" transform="translate(53.167 92.709)" fill="#7781cb"/>
    <path id="Path_28617" data-name="Path 28617" d="M.7,3.036A5.209,5.209,0,0,1,0,1.168,3.842,3.842,0,0,1,.234,0,5.382,5.382,0,0,0,.7,1.868h0q0,.467,0,1.168Z" transform="translate(52.466 89.674)" fill="#7781cb"/>
    <path id="Path_28618" data-name="Path 28618" d="M.234,1.168a10.366,10.366,0,0,0,.934,1.868q0,.234,0,.467Q.934,3.036.7,3.269l.234,1.4V4.437Q.467,2.8,0,.467V0A3.842,3.842,0,0,1,.234,1.168Z" transform="translate(51.532 86.171)" fill="#7781cb"/>
    <path id="Path_28619" data-name="Path 28619" d="M.234.934a2.073,2.073,0,0,1,.234.934A2.535,2.535,0,0,1,0,.934V0A1.352,1.352,0,0,1,.234.934Z" transform="translate(53.167 91.775)" fill="#7781cb"/>
    <path id="Path_28620" data-name="Path 28620" d="M2.569,13.077A92.241,92.241,0,0,1,0,0L.234.467Q.7,2.335,1.4,4.67c.934,3.736,2.1,8.407,3.269,13.778a55,55,0,0,1-2.1-5.371Z" transform="translate(53.634 93.643)" fill="#7781cb"/>
    <path id="Path_28621" data-name="Path 28621" d="M.467,1.4q0,.467,0,.934A5.382,5.382,0,0,1,0,.467V0A1.792,1.792,0,0,1,.234.7.951.951,0,0,1,.467,1.4Z" transform="translate(52.7 89.206)" fill="#7781cb"/>
    <path id="Path_28622" data-name="Path 28622" d="M0,0A7.238,7.238,0,0,1,.467,1.4L.234.934A2.073,2.073,0,0,0,0,0Z" transform="translate(53.4 92.709)" fill="#7781cb"/>
    <path id="Path_28623" data-name="Path 28623" d="M0,.934v0H0Z" transform="translate(53.167 90.608)" fill="#7781cb"/>
    <path id="Path_28624" data-name="Path 28624" d="M0,0,.467,1.868h0q0,.234,0,.467A7.238,7.238,0,0,0,0,.934H0Z" transform="translate(53.4 91.775)" fill="#7781cb"/>
    <path id="Path_28625" data-name="Path 28625" d="M.234,1.635A1.352,1.352,0,0,0,0,.7V0A.951.951,0,0,1,.234.7h0Q.234,1.168.234,1.635Z" transform="translate(53.167 91.075)" fill="#7781cb"/>
    <path id="Path_28626" data-name="Path 28626" d="M0,0A4.408,4.408,0,0,1,.234,1.4.951.951,0,0,0,0,.7Z" transform="translate(53.167 90.374)" fill="#7781cb"/>
    <path id="Path_28627" data-name="Path 28627" d="M.234.7A.951.951,0,0,0,0,0H.234Q.234.467.234.7Z" transform="translate(52.933 89.907)" fill="#7781cb"/>
    <path id="Path_28628" data-name="Path 28628" d="M.234,1.635A1.792,1.792,0,0,0,0,.934V0A6.861,6.861,0,0,1,.234,1.635Z" transform="translate(52.7 88.272)" fill="#7781cb"/>
    <path id="Path_28629" data-name="Path 28629" d="M0,.934V0H0V.467H0V.934Z" transform="translate(53.167 89.907)" fill="#7781cb"/>
    <path id="Path_28630" data-name="Path 28630" d="M0,0Z" transform="translate(53.167 89.907)" fill="#7781cb"/>
    <path id="Path_28631" data-name="Path 28631" d="M0,0V0Z" transform="translate(53.167 89.907)" fill="#7781cb"/>
    <path id="Path_28632" data-name="Path 28632" d="M0,0Z" transform="translate(53.167 89.907)" fill="#7781cb"/>
    <path id="Path_28633" data-name="Path 28633" d="M0,.467V0H.234C.467,1.868.7,3.269.7,3.736h0L.234,1.868h0A4.408,4.408,0,0,0,0,.467Z" transform="translate(53.167 89.907)" fill="#7781cb"/>
    <path id="Path_28634" data-name="Path 28634" d="M.234,0h0Z" transform="translate(53.167 89.907)" fill="#7781cb"/>
    <path id="Path_28635" data-name="Path 28635" d="M0,.234A.206.206,0,0,1,.234,0q0,.234,0,.234Z" transform="translate(53.167 89.674)" fill="#7781cb"/>
    <path id="Path_28636" data-name="Path 28636" d="M0,.7H0v0H0v0Z" transform="translate(53.167 89.206)" fill="#7781cb"/>
    <path id="Path_28637" data-name="Path 28637" d="M0,0A.673.673,0,0,0,.234.467h0A.206.206,0,0,0,0,.7V0Z" transform="translate(53.167 89.206)" fill="#7781cb"/>
    <path id="Path_28638" data-name="Path 28638" d="M0,.234v0Z" transform="translate(53.167 88.973)" fill="#7781cb"/>
    <path id="Path_28639" data-name="Path 28639" d="M.467.934q0,.7,0,1.4H.234A6.861,6.861,0,0,0,0,.7L.234.467q0-.234,0-.467A2.073,2.073,0,0,0,.467.934Z" transform="translate(52.7 87.572)" fill="#7781cb"/>
    <path id="Path_28640" data-name="Path 28640" d="M0,.467v0Z" transform="translate(53.167 88.506)" fill="#7781cb"/>
    <path id="Path_28641" data-name="Path 28641" d="M.234,1.4A2.073,2.073,0,0,1,0,.467H0V.934H0A.673.673,0,0,1,.234,1.4Z" transform="translate(52.933 87.105)" fill="#7781cb"/>
    <path id="Path_28642" data-name="Path 28642" d="M.234.7s0-.078,0-.234h0A.673.673,0,0,0,0,0,1.792,1.792,0,0,1,.234.7Z" transform="translate(52.933 88.039)" fill="#7781cb"/>
    <path id="Path_28643" data-name="Path 28643" d="M0,.934V0H0Z" transform="translate(52.933 87.105)" fill="#7781cb"/>
    <path id="Path_28644" data-name="Path 28644" d="M0,2.569V2.335H0V0C.467,3.97.7,6.305.467,6.305.467,5.838.234,4.437,0,2.569Z" transform="translate(53.4 87.338)" fill="#7781cb"/>
    <path id="Path_28645" data-name="Path 28645" d="M.7,3.269q.234,3.036.467,5.138,0,.467,0,.934A10.366,10.366,0,0,1,.234,7.473,3.842,3.842,0,0,0,0,6.305Q.234,3.036.234,0,.467,1.868.7,3.269Z" transform="translate(51.532 79.865)" fill="#7781cb"/>
    <path id="Path_28646" data-name="Path 28646" d="M.234,3.97q0-.234,0-.234V3.5A1.792,1.792,0,0,0,0,2.8H0V1.868A2.073,2.073,0,0,0,.234.934,2.073,2.073,0,0,1,.467,0,32.041,32.041,0,0,0,.234,3.97Z" transform="translate(52.933 85.237)" fill="#7781cb"/>
    <path id="Path_28647" data-name="Path 28647" d="M0,3.97A32.041,32.041,0,0,1,.234,0h0q0,1.168,0,2.1,0,.234,0,.7,0,.7,0,1.635A.673.673,0,0,1,0,3.97Z" transform="translate(53.167 85.237)" fill="#7781cb"/>
    <path id="Path_28648" data-name="Path 28648" d="M0,0Z" transform="translate(53.4 85.237)" fill="#7781cb"/>
    <path id="Path_28649" data-name="Path 28649" d="M0,1.168A2.873,2.873,0,0,1,.467,0q0,.467,0,.7h0q0,.234,0,.467a4.408,4.408,0,0,0-.234,1.4A3.842,3.842,0,0,1,0,3.736V1.168Z" transform="translate(53.4 83.602)" fill="#7781cb"/>
    <path id="Path_28650" data-name="Path 28650" d="M0,.7V0H0Z" transform="translate(53.867 83.602)" fill="#7781cb"/>
    <path id="Path_28651" data-name="Path 28651" d="M0,1.635V0A28.327,28.327,0,0,1,.234,3.5,8.682,8.682,0,0,0,.467,5.6h0a2.073,2.073,0,0,0-.234.934A2.073,2.073,0,0,1,0,7.473V1.635Z" transform="translate(52.933 79.632)" fill="#7781cb"/>
    <path id="Path_28652" data-name="Path 28652" d="M.7,16.113A21.025,21.025,0,0,1,0,10.275,84.361,84.361,0,0,1,.7,0C.467,4.2.234,8.407.234,11.91Q.467,14.245.7,16.113Z" transform="translate(50.598 68.89)" fill="#7781cb"/>
    <path id="Path_28653" data-name="Path 28653" d="M.234,0q0,1.868,0,3.736h0q0,.7,0,1.635,0,2.569,0,5.838h0Q0,8.64,0,4.9,0,2.569.234,0Z" transform="translate(52.7 75.896)" fill="#7781cb"/>
    <path id="Path_28654" data-name="Path 28654" d="M.559,13.544q0-.234,0-.467a26.686,26.686,0,0,1-.467-7.94A31.445,31.445,0,0,1,.559,0q0,.934,0,1.868Q.325,4.437.325,6.772q0,3.736.234,6.305,0,.234,0,.467Z" transform="translate(52.375 74.027)" fill="#7781cb"/>
    <path id="Path_28655" data-name="Path 28655" d="M0,3.97V3.036A18.494,18.494,0,0,0,.234,0,32.041,32.041,0,0,1,0,3.97Z" transform="translate(51.299 62.818)" fill="#7781cb"/>
    <path id="Path_28656" data-name="Path 28656" d="M.934,0Q.7,5.6.467,11.676a8.682,8.682,0,0,1-.234-2.1A28.327,28.327,0,0,0,0,6.072H0A33.414,33.414,0,0,1,.934,0Z" transform="translate(52.933 73.56)" fill="#7781cb"/>
    <path id="Path_28658" data-name="Path 28658" d="M0,4.437Q.234,2.335.467,0,.234,3.269,0,6.305V4.437Z" transform="translate(52.933 69.59)" fill="#7781cb"/>
    <path id="Path_28659" data-name="Path 28659" d="M.934.7A7.084,7.084,0,0,0,.7,2.8a61.438,61.438,0,0,0-.467,7.706,11.88,11.88,0,0,0,.234,2.335A2.873,2.873,0,0,0,0,14.011q0,.234,0,.467H0Q.234,8.407.467,2.8h0A14.049,14.049,0,0,0,.7.7L.934,0S.934.234.934.7Z" transform="translate(53.4 70.758)" fill="#7781cb"/>
    <path id="Path_28660" data-name="Path 28660" d="M.234,4.2.7,0Q.467,2.8.234,5.138A13.121,13.121,0,0,1,0,7.706,24.8,24.8,0,0,0,.234,4.2Z" transform="translate(53.4 61.884)" fill="#7781cb"/>
    <path id="Path_28661" data-name="Path 28661" d="M.7,6.072Q.934,3.736,1.168.934h0A2.073,2.073,0,0,1,1.4,0Q1.168,6.072.934,12.61A33.413,33.413,0,0,0,0,18.682q0-1.868,0-3.736Q.234,11.91.467,8.64A13.122,13.122,0,0,0,.7,6.072Z" transform="translate(52.933 60.95)" fill="#7781cb"/>
    <path id="Path_28662" data-name="Path 28662" d="M1.4,1.4q0,4.9-.234,9.575h0L.7,15.179a24.8,24.8,0,0,1-.234,3.5Q.234,21.017,0,23.119c0-4.9.234-10.509.7-16.347Q.934,3.269,1.4,0q0,.7,0,1.4Z" transform="translate(52.933 50.908)" fill="#7781cb"/>
    <path id="Path_28663" data-name="Path 28663" d="M2.194,0,1.727,5.6Q1.26,18.215.326,33.161A145.868,145.868,0,0,1,.559,10.742C1.026,7.006,1.493,3.5,2.194,0Z" transform="translate(51.44 46.705)" fill="#7781cb"/>
    <path id="Path_28664" data-name="Path 28664" d="M0,13.077Q.234,8.407.234,3.5q0-.7,0-1.4A8.682,8.682,0,0,0,.467,0q0,1.868,0,3.5-.234,4.2-.234,8.64A2.073,2.073,0,0,0,0,13.077Z" transform="translate(54.101 48.807)" fill="#7781cb"/>
    <path id="Path_28665" data-name="Path 28665" d="M.934,39Q.934,42.034.7,45.3a2.073,2.073,0,0,1-.234-.934s0-.078,0-.234Q.234,42.268,0,39.933c0-3.5.234-7.706.467-11.91q0-.934,0-2.1A32.041,32.041,0,0,0,.7,21.951q.7-7.006,1.4-14.712Q2.569,3.5,3.036,0,2.8,3.036,2.8,5.838c-.7,3.5-1.168,7.006-1.635,10.742A145.868,145.868,0,0,0,.934,39Z" transform="translate(50.832 40.867)" fill="#7781cb"/>
    <path id="Path_28666" data-name="Path 28666" d="M0,2.1.467.7q0-.467,0-.7,0,.234,0,.7h0Z" transform="translate(53.867 41.334)" fill="#7781cb"/>
    <path id="Path_28667" data-name="Path 28667" d="M1.168,45.537q0,.234,0,.467l-.234.234Q.7,44.136.467,41.1.234,39.7,0,37.831.934,22.885,1.4,10.275l.467-5.6L2.335,1.4A4.408,4.408,0,0,0,2.569,0q0,4.2,0,8.874-.467,3.269-.7,6.772c-.467,5.838-.7,11.443-.7,16.347h0A31.445,31.445,0,0,0,.7,37.13a26.686,26.686,0,0,0,.467,7.94v.467h0Z" transform="translate(51.766 42.034)" fill="#7781cb"/>
    <path id="Path_28668" data-name="Path 28668" d="M.7,0Q.467,4.2.234,8.64A8.682,8.682,0,0,1,0,10.742V1.868H0Q.234,1.168.7,0Z" transform="translate(54.334 40.166)" fill="#7781cb"/>
    <path id="Path_28669" data-name="Path 28669" d="M0,0Z" transform="translate(54.334 42.034)" fill="#7781cb"/>
    <path id="Path_28670" data-name="Path 28670" d="M.7,5.138a4.408,4.408,0,0,1-.234,1.4L0,9.808q0-2.8.234-5.838Q.467,2.1.934,0A40.216,40.216,0,0,0,.7,4.437q0,.234,0,.7l-.467,1.4L.7,5.138h0Z" transform="translate(53.634 36.897)" fill="#7781cb"/>
    <path id="Path_28671" data-name="Path 28671" d="M0,3.736A31.508,31.508,0,0,0,.7,0Q.7.934.7,1.868.234,3.036,0,3.736Z" transform="translate(54.334 38.298)" fill="#7781cb"/>
    <path id="Path_28672" data-name="Path 28672" d="M44.6,27.322c1.635-.934,2.335-1.635,2.335-1.4a5.273,5.273,0,0,1-2.1,1.868,13.255,13.255,0,0,1-7.473,2.569,22.634,22.634,0,0,1-5.371-.7c-1.868-.7-3.736-1.4-5.838-2.335q-5.955-2.8-12.61-6.305a29.916,29.916,0,0,1-4.67-2.569q-.7-.934-1.168-1.635A59.466,59.466,0,0,1,1.168,3.269,27.425,27.425,0,0,1,0,0,.206.206,0,0,0,.234.234q1.751,4.554,4.2,10.509.7,1.635,1.4,3.036a16.513,16.513,0,0,0,2.335,2.335,21.811,21.811,0,0,0,6.072,3.5q6.655,3.5,12.61,6.305c1.868.934,3.736,1.868,5.371,2.569a21.319,21.319,0,0,0,5.138.7A14.187,14.187,0,0,0,44.6,27.322Z" transform="translate(52.466 183.784)" fill="#7781cb"/>
    <path id="Path_28673" data-name="Path 28673" d="M.467,9.341c.234,0,0-2.335-.467-6.305A3.842,3.842,0,0,0,.234,1.868,4.408,4.408,0,0,1,.467.467q0-.234,0-.467a111.835,111.835,0,0,0,3.97,22.185,30.087,30.087,0,0,0,2.569,6.539,23.468,23.468,0,0,0,3.736,5.6,51.688,51.688,0,0,0,8.173,7.94q1.868,1.635,3.269,2.8a20.759,20.759,0,0,1,2.569,2.1c1.635.934,2.569.934,2.569,1.168a4.4,4.4,0,0,1-2.8-.7q-1.168-.7-2.8-1.868t-3.5-2.569a65.293,65.293,0,0,1-8.64-7.94A36.516,36.516,0,0,1,5.6,29.424a5.19,5.19,0,0,1-.7-1.635C3.736,22.418,2.569,17.748,1.635,14.012q-.7-2.335-1.168-4.2,0-.234,0-.467Z" transform="translate(53.4 84.302)" fill="#7781cb"/>
    <path id="Path_28674" data-name="Path 28674" d="M0,4.67q.234-1.4.7-3.5Q.7.7.7,0,.7.934.7,1.635A31.509,31.509,0,0,1,0,5.371v-.7Z" transform="translate(54.334 36.663)" fill="#7781cb"/>
    <path id="Path_28675" data-name="Path 28675" d="M.934,0Q.7,2.335.7,4.67q0,.7,0,1.168-.467,2.1-.7,3.5A40.216,40.216,0,0,1,.234,4.9h0A11.88,11.88,0,0,1,.467,2.569Q.7,1.168.934,0Z" transform="translate(54.334 31.993)" fill="#7781cb"/>
    <path id="Path_28676" data-name="Path 28676" d="M0,4.9Q0,2.569.234.234.234,0,.234,0A45.02,45.02,0,0,1,0,4.9Z" transform="translate(55.035 31.759)" fill="#7781cb"/>
    <path id="Path_28677" data-name="Path 28677" d="M17.281,7.473C12.61,5.138,6.772,3.036.934.7A.673.673,0,0,0,.467.467L0,0A.673.673,0,0,0,.467.234a46.465,46.465,0,0,0,4.9.7L10.042,2.8a62.019,62.019,0,0,1,7.94,3.736,55.456,55.456,0,0,1,6.772,3.97,52.953,52.953,0,0,1,5.138,4.437,33.948,33.948,0,0,1,5.838,8.173l.467,1.4a9.057,9.057,0,0,0,.467,1.168l.234.7q-.234,0-.467-.7A3.842,3.842,0,0,0,36.2,24.52a2.961,2.961,0,0,1-.7-1.4,35.276,35.276,0,0,0-6.072-7.473,53.84,53.84,0,0,0-5.371-4.2,55.455,55.455,0,0,0-6.772-3.97Z" transform="translate(83.758 275.559)" fill="#7781cb"/>
    <path id="Path_28678" data-name="Path 28678" d="M.467,0A26.783,26.783,0,0,1,.7,3.269Q.7,3.5.7,3.5q0,.234,0,.467Q.467,5.138.234,6.539A11.88,11.88,0,0,0,0,8.874V7.006A49.6,49.6,0,0,1,.467,0Z" transform="translate(54.568 28.023)" fill="#7781cb"/>
    <path id="Path_28679" data-name="Path 28679" d="M0,14.712Q.467,6.539.934,0h0q0,.7,0,1.168a1.792,1.792,0,0,1,.234.7A49.6,49.6,0,0,0,.7,8.874q0,.934,0,1.868h0Q.234,12.844,0,14.712Z" transform="translate(53.867 26.155)" fill="#7781cb"/>
    <path id="Path_28680" data-name="Path 28680" d="M0,1.4A4.408,4.408,0,0,1,.234,0q0,1.168,0,2.569A2.539,2.539,0,0,1,0,1.4Z" transform="translate(54.568 23.586)" fill="#7781cb"/>
    <path id="Path_28681" data-name="Path 28681" d="M.934,12.61A64.4,64.4,0,0,1,3.269,0H3.5a4.408,4.408,0,0,0-.234,1.4,4.408,4.408,0,0,0-.234,1.4A2.539,2.539,0,0,0,3.269,3.97Q2.8,10.509,2.335,18.682q-.467,3.5-.934,7.239Q.7,33.628,0,40.633.234,35.5.234,29.891c0-6.072.234-12.143.7-17.281Z" transform="translate(51.532 22.185)" fill="#7781cb"/>
    <path id="Path_28682" data-name="Path 28682" d="M1.4.234q0,1.4,0,2.569A47.443,47.443,0,0,1,.467,9.575Q.234,10.742,0,11.676V9.808Q.467,6.305.934,3.5A28.329,28.329,0,0,0,1.168,0L1.4.234Z" transform="translate(55.035 28.49)" fill="#7781cb"/>
    <path id="Path_28683" data-name="Path 28683" d="M0,0,.234.467,0,.234V0Z" transform="translate(56.203 28.257)" fill="#7781cb"/>
    <path id="Path_28684" data-name="Path 28684" d="M0,0Z" transform="translate(56.436 28.724)" fill="#7781cb"/>
    <path id="Path_28685" data-name="Path 28685" d="M0,3.5Q.234,1.635.467,0,.234,3.269.234,7.006s0-.078,0-.234A26.783,26.783,0,0,0,0,3.5Z" transform="translate(55.035 24.52)" fill="#7781cb"/>
    <path id="Path_28686" data-name="Path 28686" d="M0,.934A3.822,3.822,0,0,1,.234,0h0A2.073,2.073,0,0,1,0,.934Z" transform="translate(56.203 27.322)" fill="#7781cb"/>
    <path id="Path_28687" data-name="Path 28687" d="M.234,0q0,.7,0,1.4L0,.934A2.073,2.073,0,0,0,.234,0Z" transform="translate(56.203 27.322)" fill="#7781cb"/>
    <path id="Path_28688" data-name="Path 28688" d="M.1,0A.673.673,0,0,1,.337.467Q.337.7.337.7A3.822,3.822,0,0,0,.1,1.635h0q0,.234,0,.234s0-.078,0-.234C.1,1.4-.13.7.1.234Q.1,0,.1,0Z" transform="translate(56.099 26.622)" fill="#7781cb"/>
    <path id="Path_28689" data-name="Path 28689" d="M0,22.185C.7,8.874,1.168,1.168,1.168,0c0,1.168-.234,8.874-.7,21.718A.673.673,0,0,0,0,21.951Z" transform="translate(55.035 0)" fill="#7781cb"/>
    <path id="Path_28690" data-name="Path 28690" d="M0,0Z" transform="translate(56.436 27.322)" fill="#7781cb"/>
    <path id="Path_28691" data-name="Path 28691" d="M.7,0Q.7.934.7,1.868.467,3.5.234,5.371A1.792,1.792,0,0,0,0,4.67V3.5H0V.934H.234A1.346,1.346,0,0,1,.7,0Z" transform="translate(54.801 22.652)" fill="#7781cb"/>
    <path id="Path_28692" data-name="Path 28692" d="M.7,0V.934a1.346,1.346,0,0,0-.467.934H0A4.408,4.408,0,0,1,.234.467V.234A.673.673,0,0,1,.7,0Z" transform="translate(54.801 21.718)" fill="#7781cb"/>
    <path id="Path_28693" data-name="Path 28693" d="M.234,0A7.677,7.677,0,0,0,0,1.868V0H.234Z" transform="translate(55.502 22.652)" fill="#7781cb"/>
    <path id="Path_28694" data-name="Path 28694" d="M0,.467A.673.673,0,0,0,.234,0q0,.467,0,1.168h0s0-.078,0-.234A.673.673,0,0,0,0,.467Z" transform="translate(56.203 26.155)" fill="#7781cb"/>
    <path id="Path_28695" data-name="Path 28695" d="M1.4.934a.951.951,0,0,0-.234.7c0,.467,0,.934,0,1.635t0,.234c-.234.467,0,1.168,0,1.4q0,.234,0,.234a28.328,28.328,0,0,1-.234,3.5Q.467,11.443,0,14.946V13.311a45.02,45.02,0,0,0,.234-4.9Q.467,6.772.7,5.371A30.927,30.927,0,0,0,.7,0l.7.7h0q0,.234,0,.234Z" transform="translate(55.035 23.352)" fill="#7781cb"/>
    <path id="Path_28696" data-name="Path 28696" d="M.234,0h0Z" transform="translate(55.502 22.652)" fill="#7781cb"/>
    <path id="Path_28697" data-name="Path 28697" d="M0,.234.234,0s0,.078,0,.234Z" transform="translate(55.502 22.418)" fill="#7781cb"/>
    <path id="Path_28698" data-name="Path 28698" d="M2.335,0q0,2.569-.234,5.838c-.234,3.5-.7,7.239-1.168,11.676L0,22.652q.234-4.437.467-8.64.234-.934.467-2.1a47.442,47.442,0,0,0,.934-6.772q0-1.168,0-2.569h0q0-.7,0-1.4h0q0-.234,0-.467A2.717,2.717,0,0,0,2.335,0Z" transform="translate(54.568 26.155)" fill="#7781cb"/>
    <path id="Path_28699" data-name="Path 28699" d="M.234.234q0,.934,0,1.868A.673.673,0,0,1,0,2.569V.934a.951.951,0,0,1,.234-.7s0-.078,0-.234Q.234.234.234.234Z" transform="translate(56.203 24.053)" fill="#7781cb"/>
    <path id="Path_28700" data-name="Path 28700" d="M.234,0A2.073,2.073,0,0,0,.467.934a2.717,2.717,0,0,1-.467.7v-.7A2.073,2.073,0,0,0,.234,0Z" transform="translate(56.436 25.221)" fill="#7781cb"/>
    <path id="Path_28701" data-name="Path 28701" d="M0,0Z" transform="translate(56.436 24.053)" fill="#7781cb"/>
    <path id="Path_28702" data-name="Path 28702" d="M1.168.467q0,.467,0,.934L.467.7a30.927,30.927,0,0,1,0,5.371Q.234,7.473,0,9.107V8.874Q0,5.138.234,1.868A7.677,7.677,0,0,1,.467,0a.858.858,0,0,1,.7.234S1.168.311,1.168.467Z" transform="translate(55.268 22.652)" fill="#7781cb"/>
    <path id="Path_28703" data-name="Path 28703" d="M0,0Z" transform="translate(56.436 24.053)" fill="#7781cb"/>
    <path id="Path_28704" data-name="Path 28704" d="M0,0Z" transform="translate(56.436 24.053)" fill="#7781cb"/>
    <path id="Path_28705" data-name="Path 28705" d="M.934,0A.673.673,0,0,0,.7.467.858.858,0,0,0,0,.234H0A2.073,2.073,0,0,1,.934,0Z" transform="translate(55.736 22.418)" fill="#7781cb"/>
    <path id="Path_28706" data-name="Path 28706" d="M.234.234Q.234.7.234,1.4v.934A2.073,2.073,0,0,1,0,3.269v-2.1H0V0A.206.206,0,0,1,.234.234h0Z" transform="translate(56.436 22.885)" fill="#7781cb"/>
    <path id="Path_28707" data-name="Path 28707" d="M0,1.168V0H0A.673.673,0,0,1,.234.467q0,.467,0,.7A2.073,2.073,0,0,1,0,2.1Z" transform="translate(56.67 23.119)" fill="#7781cb"/>
    <path id="Path_28708" data-name="Path 28708" d="M1.168.467s0,.078,0,.234A2.073,2.073,0,0,0,.234.934Q.234.7.234.7L0,.934H0V0A2.073,2.073,0,0,1,.934.234.673.673,0,0,1,1.4.467H1.168Z" transform="translate(55.502 21.718)" fill="#7781cb"/>
    <path id="Path_28709" data-name="Path 28709" d="M0,.467A.673.673,0,0,1,.234,0h0q0,.234,0,.7A.206.206,0,0,0,0,.467Z" transform="translate(56.436 22.418)" fill="#7781cb"/>
    <path id="Path_28710" data-name="Path 28710" d="M0,0H0V.234H0Z" transform="translate(56.67 22.185)" fill="#7781cb"/>
    <path id="Path_28711" data-name="Path 28711" d="M0,.234.234,0h0A.206.206,0,0,1,0,.234Z" transform="translate(56.903 22.418)" fill="#7781cb"/>
    <path id="Path_28712" data-name="Path 28712" d="M.234,0,.467.234H0V0Z" transform="translate(56.67 22.185)" fill="#7781cb"/>
    <path id="Path_28713" data-name="Path 28713" d="M0,.234V0H.234q0,.234,0,.234H0Z" transform="translate(56.903 22.185)" fill="#7781cb"/>
    <path id="Path_28714" data-name="Path 28714" d="M0,0Z" transform="translate(57.137 22.418)" fill="#7781cb"/>
    <path id="Path_28715" data-name="Path 28715" d="M.934,1.168q0,.467,0,.934c-.234.7-.7,1.168-.7,1.635A2.073,2.073,0,0,1,0,2.8a2.073,2.073,0,0,0,.234-.934q0-.234,0-.7A.673.673,0,0,0,0,.7H0V0H.467L.234.234h0A.206.206,0,0,0,.467,0h0V.234L.934.7q0,.234,0,.467Z" transform="translate(56.67 22.418)" fill="#7781cb"/>
    <path id="Path_28716" data-name="Path 28716" d="M3.269,0Q3.5,2.569,3.5,5.138c-.234,2.1-.467,3.97-.7,6.072-.467,4.2-1.168,8.874-1.635,13.544Q.467,31.292,0,37.364q0-4.437.234-8.64,0-1.635,0-3.5l.934-5.138c.467-4.437.934-8.173,1.168-11.676q.234-3.269.234-5.838c0-.467.467-.934.7-1.635q0-.467,0-.934Z" transform="translate(54.334 23.586)" fill="#7781cb"/>
    <path id="Path_28717" data-name="Path 28717" d="M0,.467v0Z" transform="translate(57.604 23.119)" fill="#7781cb"/>
    <path id="Path_28718" data-name="Path 28718" d="M.467.7,0,.234V0H.234L.467.7Z" transform="translate(57.137 22.418)" fill="#7781cb"/>
    <path id="Path_28719" data-name="Path 28719" d="M30.592,3.97c-1.4,1.635-2.8,3.97-4.9,6.305a11.881,11.881,0,0,1-3.736,3.036,21.1,21.1,0,0,1-4.9,1.868,55.312,55.312,0,0,1-9.808,1.868H3.97A30.265,30.265,0,0,0,0,15.413H0a35.645,35.645,0,0,0,7.239.234,50.807,50.807,0,0,0,9.341-1.868,32.681,32.681,0,0,0,4.67-1.635,12.631,12.631,0,0,0,3.5-2.8c2.1-2.1,3.736-4.2,5.371-5.838A13.61,13.61,0,0,1,34.562.467,7.24,7.24,0,0,0,35.963,0h.7L36.2.234A2.511,2.511,0,0,0,34.8.7a14.664,14.664,0,0,0-4.2,3.269Z" transform="translate(85.16 259.446)" fill="#7781cb"/>
    <path id="Path_28720" data-name="Path 28720" d="M0,15.048H0c1.168-2.569,1.868-5.371,3.036-7.94A3.551,3.551,0,0,1,4.9,6.174c2.1-.7,3.5,0,3.736.934.234.7-2.335,5.138-6.072,6.305a2.558,2.558,0,0,1-1.868,0,2.558,2.558,0,0,0,1.868,0c3.736-1.168,6.305-5.6,6.072-6.305C8.407,6.174,7.006,5.473,4.9,6.174a3.551,3.551,0,0,0-1.868.934A12.907,12.907,0,0,1,4.2,4.539,9.058,9.058,0,0,1,4.67,3.372c1.868-1.4,3.5-2.8,4.67-3.036,2.335-.934,3.97.234,4.437,1.635,1.168,3.269-.7,10.042-9.107,12.844-.934.234-4.2,1.4-4.67.234Z" transform="translate(92.399 197.46)" fill="#dfecf1"/>
    <path id="Path_28721" data-name="Path 28721" d="M.044,10.042h0C-.189,8.407.511,7.006,1.912,5.6A43.387,43.387,0,0,1,13.355,0V.467c.467,1.4-7.94,10.509-10.509,10.976-1.168.467-2.569-.7-2.8-1.4Zm2.1-.934c.234.234.467.7.7.467.934,0,6.539-3.97,7.006-6.539-3.269,2.1-8.173,3.736-7.706,6.072Z" transform="translate(6.651 273.691)" fill="#e4ebf4" fill-rule="evenodd"/>
    <path id="Path_28722" data-name="Path 28722" d="M.213,10.042C-.721,6.305,1.614,3.036,3.482.934A2.643,2.643,0,0,0,4.416,0c.467,3.97-.234,10.509-2.8,11.209A1.073,1.073,0,0,1,.213,10.042ZM1.847,7.706q0,.234.234,0h0c1.635-.234,1.868-3.269,1.635-6.072-.934,1.635-2.1,5.371-1.868,6.072Z" transform="translate(32.17 271.823)" fill="#f3f5f9" fill-rule="evenodd"/>
    <path id="Path_28724" data-name="Path 28724" d="M.187,14.479c-.934-3.5,1.868-6.772,3.269-7.706C5.791,5.138,8.594,3.736,10.7,1.635L11.629.7h0A2.717,2.717,0,0,1,12.1,0h.234L12.8,1.868c.934,3.736,1.635,13.311-6.772,15.179-3.036.7-5.138.934-5.838-2.569Zm3.97-.7a2.7,2.7,0,0,0,3.036,2.1.673.673,0,0,1,.467-.234c4.2-.934,6.072-8.874,4.9-13.077a1.792,1.792,0,0,0-.234-.7A2.27,2.27,0,0,0,11.863.7a.673.673,0,0,1-.234.467,11.424,11.424,0,0,1-.7,1.168C8.127,5.138,2.756,7.239,4.157,13.778Z" transform="translate(24.723 269.254)" fill="#c3dbe8" fill-rule="evenodd"/>
    <path id="Path_28725" data-name="Path 28725" d="M.559,19.383A23.055,23.055,0,0,1,2.427,3.97C3.828,2.335,5.229.934,6.163,0A.206.206,0,0,1,6.4.234C4.529,3.5,2.894,10.509,4.062,15.413q.234,1.168.467,2.1c.234.7,1.635,3.036,3.036,2.8,2.569-.7,3.5-5.838,3.269-10.976,1.4,7.006-2.335,13.778-5.6,14.479C3.361,24.287,1.493,23.82.559,19.383Z" transform="translate(67.32 310.588)" fill="#e4ebf4"/>
    <path id="Path_28726" data-name="Path 28726" d="M5.454,24.287C2.418,23.352.783,19.85.316,17.748c-1.4-5.838,2.1-12.377,5.6-16.814A23.055,23.055,0,0,0,4.053,16.347c.934,4.437,2.8,4.9,4.67,4.437,3.269-.7,7.006-7.473,5.6-14.479A40.069,40.069,0,0,0,13.394.7q0-.234,0-.7a27.474,27.474,0,0,1,1.635,4.671C17.6,14.946,13.16,21.951,5.454,24.287Z" transform="translate(63.826 313.624)" fill="#dfecf1"/>
    <path id="Path_28727" data-name="Path 28727" d="M.293,22.652C-2.042,13.077,10.334,0,11.035,0h.7l.234.234a.206.206,0,0,1-.234.234A23.079,23.079,0,0,0,8.233,4.9c-3.5,4.437-7.006,10.976-5.6,16.814.467,2.1,2.1,5.6,5.138,6.539a1.792,1.792,0,0,0-.7.234c-1.868.467-5.6-.7-6.772-5.838Z" transform="translate(61.514 309.654)" fill="#c3dbe8"/>
    <path id="Path_28728" data-name="Path 28728" d="M.234,16.347A8.682,8.682,0,0,1,0,14.245a29.838,29.838,0,0,1,3.269-4.9,5.448,5.448,0,0,0-.467,4.2,1.462,1.462,0,0,0,2.1,1.168C9.575,13.778,14.712,6.305,14.245,0a14.359,14.359,0,0,1,.7,2.569c2.1,8.64-3.269,14.712-10.742,16.58-2.1.467-3.5-.934-3.97-2.8Z" transform="translate(35.185 322.031)" fill="#f3f5f9"/>
    <path id="Path_28729" data-name="Path 28729" d="M15.362.234V0A.206.206,0,0,1,15.6.234a7.175,7.175,0,0,1,2.569,4.2c1.635,6.772-4.2,17.748-10.976,19.383-3.736.934-6.539-1.4-7.006-3.97a7.613,7.613,0,0,1,.934-5.371,8.682,8.682,0,0,0,.234,2.1c.467,1.868,1.868,3.269,3.97,2.8,7.473-1.868,12.844-7.94,10.742-16.58a14.36,14.36,0,0,0-.7-2.569Z" transform="translate(34.068 321.797)" fill="#c3dbe8"/>
    <path id="Path_28730" data-name="Path 28730" d="M.243,14.011a5.447,5.447,0,0,1,.467-4.2A40.928,40.928,0,0,1,6.081,4.2c-1.868,2.335-3.269,4.9-2.8,6.305,0,.7.934.934,1.635.7C7.249,10.742,12.153,4.437,11.219,0c.934,4.437-3.97,10.742-6.305,11.209-.7.234-1.635,0-1.635-.7-.467-1.4.934-3.97,2.8-6.305C8.416,1.868,10.518.234,10.752,0h.7a.673.673,0,0,0,.234.467c.467,6.305-4.67,13.778-9.341,14.712A1.462,1.462,0,0,1,.243,14.011Z" transform="translate(37.745 321.564)" fill="#dfe3f1"/>
    <path id="Path_28734" data-name="Path 28734" d="M19.85,13.778c.934,3.97-.934,7.706-5.138,8.64-5.838,1.4-10.742-4.2-12.143-10.042a5.737,5.737,0,0,1-.467-2.1c2.1,5.138,6.772,12.61,11.676,11.443a7.026,7.026,0,0,0,5.138-7.94C17.514,7.706,6.072,1.635,0,0H0C9.575.7,17.281,3.736,19.85,13.778Z" transform="translate(112.715 289.104)" fill="#abb0de"/>
    <path id="Path_28735" data-name="Path 28735" d="M2.1,10.275c0-.934,0-1.868,0-2.569.467.7.934,1.868,1.635,3.036,2.8,4.437,5.838,7.94,8.173,7.473a4.537,4.537,0,0,0,2.335-5.138C13.077,8.173,4.67,2.1,0,0H0C6.072,1.635,17.514,7.706,18.915,13.778a7.026,7.026,0,0,1-5.138,7.94C8.874,22.885,4.2,15.413,2.1,10.275Z" transform="translate(112.715 289.104)" fill="#dfe3f1"/>
    <path id="Path_28736" data-name="Path 28736" d="M.467.7A2.717,2.717,0,0,0,0,0C4.67,2.1,13.077,8.173,14.245,13.077a4.537,4.537,0,0,1-2.335,5.138c-2.335.467-5.371-3.036-8.173-7.473,1.168,1.4,2.335,2.569,3.036,2.335,1.168-.234.7-2.569.467-3.269C6.539,6.305,2.8,2.335.467.7Z" transform="translate(112.715 289.104)" fill="#eaedf6"/>
    <path id="Path_28737" data-name="Path 28737" d="M8.495,20.317C3.124,20.784.789,16.58.088,11.91A14.967,14.967,0,0,1,4.058.234.206.206,0,0,0,4.291,0C2.657,3.269,1.256,7.473,1.723,10.742a13.109,13.109,0,0,0,6.772,9.575Z" transform="translate(79.467 277.427)" fill="#abb0de"/>
    <path id="Path_28738" data-name="Path 28738" d="M8.173,3.067a9,9,0,0,1,4.67-2.8C17.281-.9,19.149,2.133,19.383,2.833c0,.234.234.934.234,1.4.234.934.467,1.635.7,2.569C21.484,11.707,9.341,21.282,4.9,22.449A7.175,7.175,0,0,1,0,21.982a4.776,4.776,0,0,0,2.569,0C14.946,18.946,16.58,7.037,15.646,3.067a.952.952,0,0,1-.234-.7c-.467-1.4-3.036-.934-4.2-.7a10.774,10.774,0,0,0-3.036,1.4Z" transform="translate(113.183 246.104)" fill="#abb0de"/>
    <path id="Path_28739" data-name="Path 28739" d="M3.269,20.583a4.776,4.776,0,0,1-2.569,0,2.717,2.717,0,0,1-.7-.467C6.539,17.78,12.844,9.607,12.377,7.272c-.234-.7-1.635-.934-3.036-.7q-.934.234-1.635.467C5.371,7.505,2.569,11.008.7,14.511c1.635-3.97,4.67-9.575,8.173-12.844A10.775,10.775,0,0,1,11.91.266c1.168-.234,3.736-.7,4.2.7a.952.952,0,0,0,.234.7C17.281,5.637,15.646,17.547,3.269,20.583Z" transform="translate(112.482 247.504)" fill="#dfe3f1"/>
    <path id="Path_28740" data-name="Path 28740" d="M10.846,9.458c.7,3.97-.234,7.006-5.371,8.407-2.8.7-4.2-.234-4.9-3.269A12.05,12.05,0,0,1,.1,12.027a11.079,11.079,0,0,1,0-2.8C.1,5.955.571,1.284,3.84.117h.234a2.16,2.16,0,0,1,1.4,0c-.7,1.4-5.838,3.5-3.97,10.742.934,4.67,3.97,6.072,6.072,5.371C9.912,15.763,10.846,12.727,10.846,9.458Z" transform="translate(42.788 271.706)" fill="#abb0de"/>
    <path id="Path_28741" data-name="Path 28741" d="M9.514,7.94a4.408,4.408,0,0,1,.234,1.4c0,3.269-.934,6.305-3.269,6.772-2.1.7-5.138-.7-6.072-5.371C-1.462,3.5,3.676,1.4,4.376,0H4.61c-1.868,1.4-2.569,6.539-2.1,8.173.234.934.467,2.1.7,3.036.234,1.635,2.335,4.9,3.97,4.437,1.868-.467,2.335-5.838,1.4-9.575a21.689,21.689,0,0,0-.934-3.036,30.506,30.506,0,0,1,1.868,4.9Z" transform="translate(43.886 271.823)" fill="#dfe3f1"/>
    <path id="Path_28742" data-name="Path 28742" d="M.229,13.077C-1.172,6.539,4.2,4.437,7,1.635A11.423,11.423,0,0,0,7.7.467.673.673,0,0,0,7.935,0,2.27,2.27,0,0,1,8.4,1.168a1.792,1.792,0,0,1,.234.7c1.168,4.2-.7,12.143-4.9,13.077a.673.673,0,0,0-.467.234,2.7,2.7,0,0,1-3.036-2.1Zm3.5-1.168a1.073,1.073,0,0,0,1.4,1.168c2.569-.7,3.269-7.239,2.8-11.209A2.644,2.644,0,0,1,7,2.8C5.133,4.9,2.8,8.173,3.732,11.91Z" transform="translate(28.651 269.955)" fill="#dfecf1" fill-rule="evenodd"/>
    <path id="Path_28743" data-name="Path 28743" d="M.03,6.072C-.2,5.371.964,1.635,1.9,0c.234,2.8,0,5.838-1.635,6.072h0q-.234.234-.234,0Z" transform="translate(33.987 273.458)" fill="#dfe3f1"/>
    <path id="Path_28744" data-name="Path 28744" d="M0,12.61a2.337,2.337,0,0,0,3.036,1.4C6.305,13.311,14.946,4.437,17.981,0c-.7,3.5-3.269,14.712-11.676,16.814-2.8.7-5.138-.234-6.305-4.2Z" transform="translate(3.893 274.158)" fill="#c3dbe8"/>
    <path id="Path_28745" data-name="Path 28745" d="M.031,6.072C-.436,3.736,4.468,2.1,7.737,0,7.27,2.569,1.666,6.539.732,6.539c-.234.234-.467-.234-.7-.467Z" transform="translate(8.766 276.727)" fill="#d7e2ee"/>
    <path id="Path_28746" data-name="Path 28746" d="M.091,13.544q0-.234,0-.234c-.467-2.1.934-6.072,2.8-6.539a.952.952,0,0,0,.7-.234h.234l.934-.467c-1.4,1.4-2.1,2.8-1.868,4.437h0c.234.7,1.635,1.868,2.8,1.4C8.264,11.443,16.671,2.335,16.2.934V.467L18.072,0V.934C15.036,5.371,6.4,14.245,3.126,14.946a2.337,2.337,0,0,1-3.036-1.4Z" transform="translate(3.802 273.224)" fill="#dfecf1"/>
    <path id="Path_28747" data-name="Path 28747" d="M.234,16.814A10.823,10.823,0,0,1,0,14.712a26.865,26.865,0,0,1,1.4-3.97A15.04,15.04,0,0,0,3.97,6.072c0,2.8-.234,5.6.234,7.706.467,1.4,1.4,2.335,2.1,2.1,1.635-.467,1.868-4.67,1.168-7.473A25.783,25.783,0,0,0,3.736,0,9.059,9.059,0,0,0,4.9.467a30.509,30.509,0,0,1,4.67,9.575c1.168,4.67.234,9.575-3.269,10.509-3.269.934-5.138-.234-6.072-3.736Z" transform="translate(62.741 224.184)" fill="#dfe3f1"/>
    <path id="Path_28748" data-name="Path 28748" d="M.1,18.215a11.394,11.394,0,0,1,.234-3.97,10.823,10.823,0,0,0,.234,2.1c.934,3.5,2.8,4.67,6.072,3.736,3.5-.934,4.437-5.838,3.269-10.509A30.508,30.508,0,0,0,5.234,0c2.1,1.4,5.6,5.6,7.006,10.976.7,3.036,2.335,8.874-5.6,10.742a4.408,4.408,0,0,0-1.4.234c-1.4.467-4.2,0-5.138-3.736Z" transform="translate(62.411 224.651)" fill="#abb0de"/>
    <path id="Path_28749" data-name="Path 28749" d="M.234,1.868A7.677,7.677,0,0,0,0,0H0A25.783,25.783,0,0,1,3.736,8.407c.7,2.8.467,7.006-1.168,7.473-.7.234-1.635-.7-2.1-2.1C0,11.676.234,8.874.234,6.072a5.707,5.707,0,0,0,0-3.97s0-.078,0-.234Z" transform="translate(66.478 224.184)" fill="#eaedf6"/>
    <path id="Path_28750" data-name="Path 28750" d="M14.479,12.377a3.8,3.8,0,0,1,0,1.868,4.131,4.131,0,0,1-1.868,1.168C8.407,16.347,2.335,7.239.234,1.868Q.234.7.234.7A.952.952,0,0,0,0,0L2.335,1.168a3.842,3.842,0,0,0,.234,1.168c.7,3.269,6.305,9.107,9.107,8.407h.7c.467-.234.234-1.168.234-1.635a.673.673,0,0,0-.234-.467,7.631,7.631,0,0,1,2.1,3.736Z" transform="translate(79.321 218.813)" fill="#dfecf1"/>
    <path id="Path_28751" data-name="Path 28751" d="M12.516,13.544a4.131,4.131,0,0,0,1.868-1.168,5.514,5.514,0,0,1-3.97,3.5c-4.2.934-8.407-.7-9.808-6.539A34.075,34.075,0,0,1,.14,0c2.1,5.371,8.173,14.479,12.377,13.544Z" transform="translate(79.415 220.681)" fill="#c3dbe8"/>
    <path id="Path_28752" data-name="Path 28752" d="M11.209.477c3.269-.934,7.006-.7,7.94,2.569,1.168,3.269-2.8,13.077-10.976,15.88C4.67,20.093.234,17.758,0,17.057a.673.673,0,0,1,.234-.467c.467,1.168,3.736,0,4.67-.234,8.407-2.8,10.275-9.575,9.107-12.844-.467-1.4-2.1-2.569-4.437-1.635-1.168.234-2.8,1.635-4.67,3.036.7-1.635.7-2.569,6.305-4.437Z" transform="translate(92.165 195.917)" fill="#c3dbe8"/>
    <path id="Path_28753" data-name="Path 28753" d="M1.284,7.706a5.894,5.894,0,0,1-.7-1.4A3.319,3.319,0,0,1,.117,4.9a1.5,1.5,0,0,1,0-1.168c3.269,3.97,12.377,2.569,17.281,1.4C20.9,4.2,25.1,2.335,26.739,0a8.682,8.682,0,0,1-.234,2.1c-2.569,2.335-7.473,6.305-9.341,6.772C6.655,11.209,1.518,7.94,1.284,7.706Z" transform="translate(2.375 231.19)" fill="#dfe3f1"/>
    <path id="Path_28754" data-name="Path 28754" d="M0,5.6c.234.234,5.371,3.5,15.88,1.168C17.748,6.305,22.652,2.335,25.221,0c-1.168,4.671-8.64,7.473-14.011,8.874C6.072,10.042,1.868,8.173,0,5.6Z" transform="translate(3.659 233.291)" fill="#abb0de"/>
    <path id="Path_28755" data-name="Path 28755" d="M0,5.935C0,3.133,3.036.8,5.138.1A25.8,25.8,0,0,1,10.976.33a4.407,4.407,0,0,1-1.4.234C7.94,1.031,5.138,1.965,5.6,3.6c.7,3.736,9.341,3.5,12.61,2.8a21.734,21.734,0,0,1,3.269-.934c1.868-.467,4.9-2.8,4.67-3.736q0-.234-.467-.234a1.75,1.75,0,0,0-1.168-.234l-.934.467a15.112,15.112,0,0,1-2.335-.7A4.407,4.407,0,0,0,22.652.8l1.4-.467c.234,0,.467-.234.7-.234a2.264,2.264,0,0,1,1.635,1.635.673.673,0,0,0,.234.467c-1.635,2.335-5.838,4.2-9.341,5.138C12.377,8.5,3.269,9.9,0,5.935Z" transform="translate(2.492 228.991)" fill="#eaedf6"/>
    <path id="Path_28756" data-name="Path 28756" d="M.054,13.311C-.646,7.473,5.659,4.2,6.359,3.5A6.551,6.551,0,0,0,8.695.234L8.928,0a3.611,3.611,0,0,1,1.4.7A8.816,8.816,0,0,1,10.8,3.5c.7,5.838-5.138,12.377-8.173,12.61A2.128,2.128,0,0,1,.988,15.88a4.9,4.9,0,0,1-.934-2.569Zm1.868-1.168c0,.7.7.934,1.4.934,4.2-.467,6.305-6.539,5.838-9.575a4.408,4.408,0,0,0-.234-1.4,1.552,1.552,0,0,1-.934,1.168C7.527,4.2,1.455,8.64,1.922,12.143Z" transform="translate(20.186 186.353)" fill="#dfecf1" fill-rule="evenodd"/>
    <path id="Path_28757" data-name="Path 28757" d="M9.341,0A10.546,10.546,0,0,1,11.91,6.072c.467,5.138-4.67,10.042-7.94,10.275a5.8,5.8,0,0,1-2.1.234A2.19,2.19,0,0,1,0,15.179a2.128,2.128,0,0,0,1.635.234C4.67,15.179,10.509,8.64,9.808,2.8A8.815,8.815,0,0,0,9.341,0Z" transform="translate(21.174 187.053)" fill="#c3dbe8"/>
    <path id="Path_28758" data-name="Path 28758" d="M6.772,21.087a4.037,4.037,0,0,1-2.335-.234h.934c1.868-.467,6.305-3.736,4.67-10.275C9.107,6.842,3.736,2.638,0,.537L.934.07c3.5-.7,10.042,3.97,11.443,10.509,1.635,6.539-4.2,10.042-5.6,10.509Z" transform="translate(66.711 144.482)" fill="#c3dbe8"/>
    <path id="Path_28759" data-name="Path 28759" d="M7.013,20.317H6.079c-1.868-.467-3.736-2.1-4.67-6.072a37.842,37.842,0,0,1-.7-4.67c0-3.036-1.868-7.473.467-9.341A.673.673,0,0,0,1.642,0c3.736,2.1,9.107,6.305,10.042,10.042,1.635,6.539-2.8,9.808-4.67,10.275Zm-1.635-3.5c1.635-.467,1.635-3.736,1.168-6.072q-.234-.934-.467-1.635c-.7-3.036-3.97-7.706-4.67-7.473H1.175c0,.467.234.934.234,1.635.234,3.736-.234,5.6.234,7.239a5.175,5.175,0,0,0,.234,1.635c.234.934,1.635,4.9,3.5,4.67Z" transform="translate(65.07 145.019)" fill="#dfecf1" fill-rule="evenodd"/>
    <path id="Path_28760" data-name="Path 28760" d="M0,2.115A5.579,5.579,0,0,1,3.036.481c9.808-2.335,15.413,4.437,16.113,7.473.467,2.8-.934,5.138-3.269,7.006a5.183,5.183,0,0,0-.234-2.1C14.946,10.289,10.742.948,0,2.115Z" transform="translate(74.184 128.425)" fill="#c3dbe8"/>
    <path id="Path_28761" data-name="Path 28761" d="M0,.568.467.1C11.209-1.067,15.413,8.274,16.113,10.843a5.183,5.183,0,0,1,.234,2.1,14.018,14.018,0,0,1-5.838,3.036c-1.635.234-3.736-2.335-5.6-5.371,2.335,1.868,5.371,3.036,7.239,2.569,1.635-.234,2.1-1.868,1.635-3.5C12.61,4.771,4.2.8,0,.8V.568Z" transform="translate(73.717 130.44)" fill="#dfecf1"/>
    <path id="Path_28762" data-name="Path 28762" d="M5.021,9.808A52.212,52.212,0,0,1,.117.467.292.292,0,0,1,.117,0c4.2,0,12.61,3.97,13.778,8.874.467,1.635,0,3.269-1.635,3.5-1.868.467-4.9-.7-7.239-2.569ZM3.153,2.8c2.8,5.838,7.239,6.772,8.173,6.539.234,0,.234-.7.234-.934-.234-1.4-2.335-2.335-7.239-4.2C3.62,3.97,3.386,3.269,3.153,2.8Z" transform="translate(73.6 131.241)" fill="#e4ebf4" fill-rule="evenodd"/>
    <path id="Path_28763" data-name="Path 28763" d="M.157,11.882C-1.011,6.044,4.594,2.541,8.8.907c3.5-1.168,7.473-1.4,10.275.467v.7a13.885,13.885,0,0,0-8.173.467,7.422,7.422,0,0,1-2.1.7,14.969,14.969,0,0,0-8.64,8.64Z" transform="translate(0 157.89)" fill="#abb0de"/>
    <path id="Path_28764" data-name="Path 28764" d="M.467,11.85A2.878,2.878,0,0,1,0,10.215a14.969,14.969,0,0,1,8.64-8.64,7.421,7.421,0,0,0,2.1-.7A13.885,13.885,0,0,1,18.915.407q0,.234,0,.7C11.91,3.91,2.8,9.281,1.868,15.119a14.78,14.78,0,0,1-1.4-3.269Z" transform="translate(0.157 159.557)" fill="#dfe3f1"/>
    <path id="Path_28765" data-name="Path 28765" d="M0,14.479C.934,8.64,10.042,3.269,17.047.467L17.981,0a.673.673,0,0,1,.467.234V.467a20.631,20.631,0,0,1-1.4,3.736c-2.1,4.9-6.539,13.077-9.107,14.245C4.67,19.616,1.868,17.514,0,14.479Zm3.97,1.868c0,.467,1.168.234,1.635,0,2.1-.7,6.539-7.006,7.006-7.473.934-1.4,1.4-2.8,2.1-3.97a.673.673,0,0,0-.467.234C10.976,6.305,2.569,12.844,3.97,16.347Z" transform="translate(2.025 160.198)" fill="#eaedf6" fill-rule="evenodd"/>
    <path id="Path_28766" data-name="Path 28766" d="M.234,9.575A2.073,2.073,0,0,1,0,8.64a.673.673,0,0,1,.234.467c.934,4.67,5.371,10.042,9.575,9.575,1.168-.234,1.635-2.569,1.4-3.97-.467-3.036-5.6-9.341-8.874-12.844A9.28,9.28,0,0,1,1.168.467q0-.234,0-.467h0c9.107,7.006,13.544,10.976,14.245,16.347v.234c-1.168,1.868-2.8,3.036-3.97,3.036-.467.234-1.168.234-1.635.467-1.168,0-8.407-1.4-9.575-10.509Z" transform="translate(66.478 176.078)" fill="#dfe3f1"/>
    <path id="Path_28767" data-name="Path 28767" d="M7.473,11.209A55.1,55.1,0,0,0,2.1,0c3.269,3.5,8.407,9.808,8.874,12.844.234,1.4-.234,3.736-1.4,3.97-4.2.467-8.64-4.9-9.575-9.575,1.4,3.736,3.736,6.539,5.6,6.305a1.8,1.8,0,0,0,1.868-2.335Z" transform="translate(66.711 177.946)" fill="#eaedf6"/>
    <path id="Path_28768" data-name="Path 28768" d="M14.245,16.347C13.544,10.976,9.107,7.006,0,0,6.305,1.4,14.712,4.2,15.646,10.742c.234,2.569-.234,4.437-1.4,5.838Z" transform="translate(67.645 176.078)" fill="#abb0de"/>
    <path id="Path_28769" data-name="Path 28769" d="M.234,7.94A.673.673,0,0,0,0,7.473,30.449,30.449,0,0,1,1.168.234Q1.4,0,1.168,0h0A9.278,9.278,0,0,0,2.335,1.4,55.1,55.1,0,0,1,7.706,12.61a1.8,1.8,0,0,1-1.868,2.335c-1.868.234-4.2-2.569-5.6-6.305q0-.234,0-.7Z" transform="translate(66.478 176.545)" fill="#f3f5f9"/>
    <path id="Path_28770" data-name="Path 28770" d="M10.9,11.209c.934,6.772-3.269,9.808-5.138,10.275-3.036.7-4.9-.934-5.6-3.97S1.321,4.9,2.255,0A92.964,92.964,0,0,0,3.89,10.275c.934,3.97,3.036,6.072,4.2,5.838.7-.234,2.335-2.1,2.8-4.9Z" transform="translate(88.042 324.132)" fill="#f3f5f9"/>
    <path id="Path_28771" data-name="Path 28771" d="M8.407,13.544a5.175,5.175,0,0,0,.234,1.635c-.467,2.8-2.1,4.67-2.8,4.9-1.168.234-3.269-1.868-4.2-5.838A92.965,92.965,0,0,1,0,3.97,11.186,11.186,0,0,1,.934.934V.467A.673.673,0,0,0,1.168,0H1.4q0,.234,0,.234l.234.234c.467,3.5.934,7.239.934,7.473.7,2.335,2.335,7.006,4.9,6.305q.467,0,.934-.7Z" transform="translate(90.297 320.163)" fill="#eaedf6"/>
    <path id="Path_28772" data-name="Path 28772" d="M.934,7.473C.934,7.239.467,3.5,0,0A16.972,16.972,0,0,1,2.569,3.269a31.855,31.855,0,0,1,3.97,9.575.206.206,0,0,1,.234.234q-.467.7-.934.7c-2.569.7-4.2-3.97-4.9-6.305Z" transform="translate(91.932 320.63)" fill="#dfe3f1"/>
    <path id="Path_28773" data-name="Path 28773" d="M.392,15.646C-.775,10.742.859,3.736,2.728.467L3.195,0A8.247,8.247,0,0,1,6.23,3.269q0,.467,0,.7a40.07,40.07,0,0,1,.934,5.6C7.4,14.712,6.464,19.85,3.9,20.55c-1.4.234-2.8-2.1-3.036-2.8q-.234-.934-.467-2.1Z" transform="translate(70.989 310.354)" fill="#d7e2ee"/>
    <g id="Group_921" data-name="Group 921" transform="translate(84.872 308.019)">
      <path id="Path_28657" data-name="Path 28657" d="M33.861,23.352q-.234.234-3.5-1.168a28.392,28.392,0,0,1-3.97-1.868,12.516,12.516,0,0,1-2.569-1.168,17.417,17.417,0,0,1-2.8-1.635A86.754,86.754,0,0,1,7.239,8.407l-2.8-2.335a21.852,21.852,0,0,0-1.868-2.8A23.379,23.379,0,0,0,.467.934,2.89,2.89,0,0,0,0,.234L.234,0Q4.2,3.97,8.173,7.239a114.1,114.1,0,0,0,13.311,9.575,17.417,17.417,0,0,1,2.8,1.635l2.335,1.4c1.635.7,2.8,1.4,3.97,1.868l3.269,1.635Z" transform="translate(0.988 0)" fill="#7781cb"/>
      <path id="Path_28723" data-name="Path 28723" d="M.287,22.652c-1.168-4.671,1.635-6.072,1.168-9.575l.7-.7A27.618,27.618,0,0,1,5.425,1.868L6.359,0q0,.234,0,.467A11.186,11.186,0,0,0,5.425,3.5c-.934,4.9-2.8,14.479-2.1,17.514s2.569,4.671,5.6,3.97c1.868-.467,6.072-3.5,5.138-10.275a5.175,5.175,0,0,1-.234-1.635.206.206,0,0,0-.234-.234,31.856,31.856,0,0,0-3.97-9.575,28.524,28.524,0,0,1,4.437,8.874q0,.234,0,.467a.673.673,0,0,1,.234.467c2.335,10.042-.934,14.245-5.6,15.413-4.9,1.168-7.473-2.569-8.407-5.838Z" transform="translate(0 12.61)" fill="#e0ebf3"/>
      <path id="Path_28731" data-name="Path 28731" d="M26.622,9.141a13.24,13.24,0,0,1,1.868,3.036q1.868,3.5.7,6.072a5.737,5.737,0,0,0-.467-2.1C21.484,2.136,7.006,5.405,0,3.77q0-.234.467-.7A5.709,5.709,0,0,1,3.036.968C10.976-3,25.221,6.339,26.622,9.142Z" transform="translate(11.263 6.505)" fill="#abb0de"/>
      <path id="Path_28732" data-name="Path 28732" d="M28.957,12.377a5.736,5.736,0,0,1,.467,2.1,7.229,7.229,0,0,1-3.97,3.736.951.951,0,0,1-.7.234c.934-.934.467-2.335-.467-3.736C20.083,6.539,3.269.467,0,.7A1.792,1.792,0,0,1,.234,0C7.239,1.635,21.718-1.635,28.957,12.377Z" transform="translate(11.029 10.275)" fill="#dfe3f1"/>
      <path id="Path_28733" data-name="Path 28733" d="M0,.24V.007C3.269-.227,20.083,5.845,24.287,14.018c.934,1.4,1.4,2.8.467,3.736-2.8,1.168-6.305,0-9.808-2.1a2.635,2.635,0,0,0,1.868-.234c1.168-.7,1.4-1.4.934-2.335a3.764,3.764,0,0,1-.934-1.635C15.179,8.18,5.371,2.809,1.168.941c.467.7.934,1.168,1.168,1.635C5.6,6.312,8.173,9.815,10.509,12.15A57.034,57.034,0,0,1,5.138,7.012C3.036,4.443,1.168,1.875,0,.24Z" transform="translate(11.029 10.969)" fill="#eaeff6"/>
      <path id="Path_28774" data-name="Path 28774" d="M13.778,14.712a23.082,23.082,0,0,1-4.437-3.5c-2.335-2.335-4.9-5.838-8.173-9.575C.934,1.168.467.7,0,0,4.2,1.868,14.011,7.239,15.646,10.509a3.764,3.764,0,0,0,.934,1.635c.467.934.234,1.635-.934,2.335A2.635,2.635,0,0,1,13.778,14.712Z" transform="translate(12.197 11.91)" fill="#eaedf6"/>
    </g>
    <path id="Path_28775" data-name="Path 28775" d="M0,.467Q0,.234,0,0C2.335,1.635,6.072,5.6,6.772,9.107c.234.7.7,3.036-.467,3.269-.7.234-1.868-.934-3.036-2.335C2.569,8.874,2.1,7.706,1.635,7.006V6.772A12.337,12.337,0,0,0,1.4,3.736q0-.234,0-.467A8.182,8.182,0,0,0,.234.934.673.673,0,0,1,0,.467Z" transform="translate(113.183 289.804)" fill="#f3f5f9"/>
    <path id="Path_28776" data-name="Path 28776" d="M2.893.234,3.127,0A.673.673,0,0,0,3.36.467a19.663,19.663,0,0,0-.7,9.107c0,1.168,1.868,10.042,6.772,9.341,2.1-.234,2.569-4.2,2.569-6.772a6.861,6.861,0,0,1,.234,1.635c.467,3.036-1.4,6.772-5.138,7.239H6.863A13.109,13.109,0,0,1,.091,11.443C-.376,8.173,1.025,3.97,2.66.7A.673.673,0,0,0,2.893.234Z" transform="translate(81.099 276.727)" fill="#dfe3f1"/>
    <path id="Path_28777" data-name="Path 28777" d="M1.635.467C4.9,3.5,8.407,7.473,9.575,11.676c0,2.569-.467,6.539-2.569,6.772-4.9.7-6.772-8.173-6.772-9.341A19.663,19.663,0,0,1,.934,0,.673.673,0,0,1,1.4.234h0A15.735,15.735,0,0,0,1.168,4.9c.934,6.305,3.97,8.173,5.6,7.94.7-.234.7-2.1.7-2.8C6.772,5.138,2.1,1.168,1.635.467h0Z" transform="translate(83.525 277.194)" fill="#eaedf6"/>
    <path id="Path_28778" data-name="Path 28778" d="M.3,0h0A.206.206,0,0,0,.532.234h0C1,.934,5.67,4.9,6.371,9.808c0,.7,0,2.569-.7,2.8C4.035,12.844,1,10.976.065,4.67A15.735,15.735,0,0,1,.3,0Z" transform="translate(84.627 277.427)" fill="#f3f5f9"/>
    <path id="Path_28779" data-name="Path 28779" d="M2.242,0a3.659,3.659,0,0,1,.934.7,11.891,11.891,0,0,0-.234,7.006c.234.934.934,3.736,2.1,3.5s1.4-1.635,0-6.539a18.945,18.945,0,0,0-.7-2.569,5.105,5.105,0,0,0-.7-1.168,5.813,5.813,0,0,1,1.635,2.1,21.688,21.688,0,0,1,.934,3.036c.934,3.736.467,9.107-1.4,9.575-1.635.467-3.736-2.8-3.97-4.437-.234-.934-.467-2.1-.7-3.036C-.327,6.539.374,1.4,2.242,0Z" transform="translate(46.254 271.823)" fill="#eaedf6"/>
    <path id="Path_28780" data-name="Path 28780" d="M.657,0a.673.673,0,0,1,.467.234,5.105,5.105,0,0,1,.7,1.168,18.945,18.945,0,0,1,.7,2.569c1.4,4.9,1.168,6.305,0,6.539S.657,7.94.423,7.006A11.891,11.891,0,0,1,.657,0Z" transform="translate(48.774 272.523)" fill="#f3f5f9"/>
    <path id="Path_28781" data-name="Path 28781" d="M0,12.931a30.527,30.527,0,0,1,1.868-4.9c1.868-3.5,4.67-7.006,7.006-7.473q.7-.234,1.635-.467c1.4-.234,2.8,0,3.036.7C14.011,3.123,7.706,11.3,1.168,13.632a.951.951,0,0,1-.7-.234L0,12.931Zm1.4-.7.234.234h.934c1.4-.467,7.706-8.173,7.473-9.341a1.372,1.372,0,0,0-1.168-.467C6.772,3.357,1.168,11.3,1.4,12.231Z" transform="translate(111.314 253.987)" fill="#eaedf6" fill-rule="evenodd"/>
    <path id="Path_28782" data-name="Path 28782" d="M.007,9.575C-.226,8.64,5.378.7,7.48,0A1.372,1.372,0,0,1,8.647.467c.234,1.168-6.072,8.874-7.473,9.341H.241Z" transform="translate(112.708 256.644)" fill="#f3f5f9"/>
    <path id="Path_28783" data-name="Path 28783" d="M.234,1.168A3.842,3.842,0,0,1,0,0C3.269,1.868,7.473,4.437,10.042,7.473a.673.673,0,0,1,.234.467c0,.467.234,1.4-.234,1.635h-.7c-2.8.7-8.407-5.138-9.107-8.407Z" transform="translate(81.657 219.98)" fill="#e4ebf4"/>
    <path id="Path_28784" data-name="Path 28784" d="M4.022.234A4.408,4.408,0,0,0,5.423,0C8.692.467,12.2,1.168,15.7.7a15.116,15.116,0,0,0,2.335.7l.934-.467a1.75,1.75,0,0,1,1.168.234q.467,0,.467.234c.234.934-2.8,3.269-4.67,3.736a21.736,21.736,0,0,0-3.269.934c-3.269.7-11.91.934-12.61-2.8C-.415,1.635,2.387.7,4.022.234Z" transform="translate(8.045 229.321)" fill="#f3f5f9"/>
    <path id="Path_28785" data-name="Path 28785" d="M.026,10.042C-.441,6.539,5.63,2.1,6.1,1.168A1.552,1.552,0,0,0,7.031,0a4.408,4.408,0,0,1,.234,1.4c.467,3.036-1.635,9.107-5.838,9.575-.7,0-1.4-.234-1.4-.934Z" transform="translate(22.082 188.455)" fill="#e4ebf4"/>
    <path id="Path_28786" data-name="Path 28786" d="M4.2,15.188h0c-1.868.234-3.269-3.736-3.5-4.67A5.175,5.175,0,0,1,.467,8.882C0,7.248.467,5.379.234,1.643.234.943,0,.475,0,.008H.234C.934-.225,4.2,4.445,4.9,7.481q.234.7.467,1.635C5.838,11.451,5.838,14.72,4.2,15.188Z" transform="translate(66.244 146.645)" fill="#e4ebf4"/>
    <path id="Path_28787" data-name="Path 28787" d="M10.431.234A.673.673,0,0,1,10.9,0c-.7,1.168-1.168,2.569-2.1,3.97-.467.467-4.9,6.772-7.006,7.473-.467.234-1.635.467-1.635,0C-1.245,7.94,7.162,1.4,10.431.234Z" transform="translate(5.839 165.102)" fill="#f3f5f9"/>
    <path id="Path_28788" data-name="Path 28788" d="M0,0C.234.467.467,1.168,1.168,1.4c4.9,1.868,7.006,2.8,7.239,4.2,0,.234,0,.934-.234.934C7.239,6.772,2.8,5.838,0,0Z" transform="translate(76.753 134.043)" fill="#f3f5f9"/>
  </g>
</svg>
