<svg xmlns="http://www.w3.org/2000/svg" width="108.431" height="95.057" viewBox="0 0 108.431 95.057">
  <g id="searchicon" transform="translate(-442 -2089)">
    <path id="pexels-jonathan-borba-11643587" d="M54.216,0A46.668,46.668,0,0,1,94.753,23.547l.491.861a46.668,46.668,0,0,1,0,46.241l-.491.861A46.668,46.668,0,0,1,54.216,95.057h0A46.668,46.668,0,0,1,13.678,71.51l-.491-.861a46.668,46.668,0,0,1,0-46.241l.491-.861A46.668,46.668,0,0,1,54.216,0Z" transform="translate(442 2089)" fill="#c78665"/>
    <g id="Group_321" data-name="Group 321" transform="translate(473.04 2114.039)">
      <g id="_12" data-name="12" transform="translate(1.96 1.96)">
        <path id="Path_480" data-name="Path 480" d="M43.386,40.407,37.45,34.492a19.969,19.969,0,1,0-2.958,2.958l5.915,5.936a2.106,2.106,0,1,0,2.979-2.979ZM6.239,21.97A15.731,15.731,0,1,1,21.97,37.7,15.731,15.731,0,0,1,6.239,21.97Z" transform="translate(-1.96 -1.96)" fill="#fff"/>
      </g>
    </g>
  </g>
</svg>
